<?xml version="1.0" encoding="UTF-8"?>
<svg id="Layer_2" data-name="Layer 2" xmlns="http://www.w3.org/2000/svg" viewBox="0 0 114.7 105.18">
  <defs>
    <style>
      .cls-1 {
        fill: #6cc9dc;
      }

      .cls-1, .cls-2, .cls-3, .cls-4, .cls-5, .cls-6, .cls-7, .cls-8 {
        stroke-width: 0px;
      }

      .cls-2 {
        fill: #cfd9dc;
      }

      .cls-3 {
        fill: #464b53;
      }

      .cls-4 {
        fill: #f69580;
      }

      .cls-5 {
        fill: #538f9b;
      }

      .cls-6 {
        /* fill: #fff; */
        fill:transparent;
      }

      .cls-7 {
        fill: #b36c5f;
      }

      .cls-8 {
        fill: #92999b;
      }
    </style>
  </defs>
  <g id="Layer_1-2" data-name="Layer 1">
    <g>
      <path class="cls-6" d="M57.35,105.16c-18.89,0-37.78,0-56.68.01C.12,105.18,0,105.05,0,104.5.02,69.89.02,35.28,0,.67,0,.12.12,0,.67,0c37.78.02,75.57.02,113.35,0,.55,0,.67.12.67.67-.02,34.61-.02,69.22,0,103.83,0,.55-.12.67-.67.67-18.89-.02-37.78-.01-56.68-.01Z"/>
      <path class="cls-3" d="M99.89,43.77v.88c0,16.23,0,32.46,0,48.69,0,5.31-4.31,9.62-9.63,9.62-22.04,0-44.08,0-66.11,0-5.31,0-9.63-4.32-9.63-9.63,0-16.18,0-32.36,0-48.54v-.91c-.08.01-.16,0-.2.04-3.83,2.95-8.8,1.84-11.55-2.27-.66-.98-1.14-2.04-1.54-3.14-.29-.78-.21-1.48.2-2.23,4.22-7.6,8.41-15.21,12.61-22.82.46-.83.93-1.66,1.37-2.5.4-.78,1.04-1.12,1.9-1.12,1.61,0,3.22-.02,4.83.01.48,0,.61-.13.6-.61-.03-1.68-.01-3.37-.01-5.05,0-1.51.62-2.13,2.12-2.13,10.96,0,21.92,0,32.87,0,10.59,0,21.18,0,31.78,0,1.63,0,2.23.61,2.24,2.26,0,1.61.02,3.22-.01,4.83-.01.53.1.72.67.7,1.54-.04,3.07,0,4.61-.02.94-.01,1.6.35,2.07,1.21,4.65,8.47,9.33,16.93,14.01,25.39.34.62.39,1.22.17,1.89-.88,2.71-2.32,5-4.92,6.36-2.68,1.4-5.3,1.16-7.82-.49-.18-.11-.34-.24-.61-.43Z"/>
      <path class="cls-2" d="M91.98,99.15c-.49.24-1.02.3-1.56.3-11.23,0-22.45-.02-33.68,0-.61,0-.64-.24-.64-.73.01-9.54,0-19.08,0-28.63,0-3.23-1.96-5.18-5.2-5.18-5.76,0-11.52,0-17.28,0-2.91,0-4.93,2-4.93,4.9,0,9.59,0,19.18.01,28.77,0,.64-.11.9-.82.86-1.68-.11-3.37.2-5.04-.14-2.78-.57-4.82-3.09-4.82-5.93,0-16.42,0-32.85,0-49.27,0-.16,0-.32,0-.53,4.85,3.71,9.49,1.61,11.93-1.9,4.12,5.67,10.49,4.6,13.64,0,3.76,5.25,9.95,5.07,13.61-.04,1.7,2.31,3.84,3.9,6.81,3.89,2.96,0,5.09-1.57,6.79-3.9.63.82,1.27,1.57,2.06,2.19,3.3,2.6,7.73,2.2,10.53-.94.34-.38.58-1.05,1.02-1.04.32,0,.62.68.96,1.03,2.37,2.5,5.2,3.31,8.51,2.26.34.4.23.88.23,1.33,0,9.9,0,19.81,0,29.71,0,5.81,0,11.61,0,17.42,0,1.6-.46,3.08-1.2,4.48-.23.44-.53.82-.94,1.1Z"/>
      <path class="cls-4" d="M105.59,41.89c-1,.39-1.93.11-2.78-.4-1.56-.94-2.51-2.35-2.93-4.1-.23-.97-.88-1.59-1.8-1.63-.81-.04-1.53.5-1.81,1.42-.36,1.21-.93,2.31-1.76,3.25-1.98,2.24-4.94,2.09-6.86-.35-.67-.85-1.12-1.82-1.45-2.85-.31-.97-.93-1.48-1.76-1.48-.84,0-1.44.51-1.74,1.49-.51,1.65-1.31,3.1-2.78,4.09-1.63,1.1-3.58.95-5.06-.35-1.18-1.03-1.88-2.34-2.34-3.81-.35-1.11-1.33-1.63-2.33-1.24-.59.23-.9.69-1.08,1.29-.44,1.45-1.13,2.74-2.3,3.75-1.7,1.47-3.88,1.47-5.58,0-1.18-1.03-1.85-2.36-2.32-3.82-.41-1.27-1.7-1.72-2.72-.97-.35.26-.54.61-.67,1.02-.33,1.11-.81,2.14-1.57,3.03-2.22,2.58-5.29,2.45-7.3-.3-.58-.79-.99-1.67-1.28-2.61-.31-.98-.94-1.51-1.74-1.52-.79,0-1.44.55-1.75,1.51-.42,1.32-1.05,2.5-2.07,3.48-1.78,1.7-4.16,1.73-5.96.03-1.08-1.02-1.7-2.3-2.15-3.68-.27-.84-.97-1.36-1.72-1.34-.73.02-1.38.55-1.66,1.34-.07.21-.12.42-.2.63-.47,1.25-1.11,2.39-2.16,3.24-1.86,1.51-4,1.43-5.75-.22-1.08-1.02-1.68-2.31-2.13-3.69-.35-1.07-1.36-1.55-2.38-1.16-.65.25-.98.77-1.12,1.43-.29,1.41-1.03,2.58-2.08,3.52-1.85,1.67-4.18,1.57-5.96-.19-.21-.21-.41-.42-.59-.65-.96-1.25-1.37-2.34-.4-4.02,4.2-7.28,8.18-14.69,12.23-22.05.23-.42.49-.62,1.01-.62,25.02.02,50.03.01,75.05.01.17,0,.34.01.51.02.44.16.57.59.76.94,2.73,5,5.51,9.98,8.25,14.98,1.28,2.33,2.56,4.65,3.86,6.97.46.82.49,1.59.15,2.44-.45,1.13-.84,2.29-1.74,3.17Z"/>
      <path class="cls-1" d="M50.09,99.44c-5.81,0-11.61,0-17.42.03-.6,0-.53-.32-.53-.69,0-5.08,0-10.15,0-15.23,0-4.42,0-8.83,0-13.25,0-1.61.28-1.89,1.85-1.89,5.32,0,10.64,0,15.96.01.28.13.34.39.37.67.03.27.02.54.02.8,0,9.41,0,18.81,0,28.22,0,.45.1.94-.24,1.33Z"/>
      <path class="cls-2" d="M26.25,9.81c0-1.22.01-2.44-.03-3.66-.02-.52.19-.59.63-.58,2.88.02,5.76,0,8.63,0,16.44,0,32.88,0,49.32,0,.29,0,.58,0,.88.01.21.21.24.48.24.75.02.9.03,1.81,0,2.71-.02.78-.11.85-.92.85-3.51,0-7.03,0-10.54,0-15.78,0-31.57,0-47.35,0-.28,0-.59.09-.86-.08Z"/>
      <path class="cls-8" d="M91.98,99.15c.9-1.35,1.61-2.78,1.83-4.41.05-.38.08-.78.08-1.16,0-16.08,0-32.16,0-48.24,0-.07,0-.15,0-.22.83-.41,1.65-.81,2.34-1.44.24.24.15.47.15.67,0,16.37,0,32.73,0,49.1,0,2.64-1.91,5.1-4.4,5.71Z"/>
      <path class="cls-5" d="M50.09,99.44c0-2.92.02-5.84.02-8.77,0-7.01,0-14.03,0-21.04,0-.41.08-.83-.16-1.21.46,0,.93-.02,1.39-.01.82.02,1.23.45,1.27,1.28,0,.1,0,.19,0,.29,0,9.55,0,19.1.02,28.65,0,.67-.18.91-.85.84-.55-.06-1.12-.02-1.68-.03Z"/>
      <path class="cls-7" d="M105.59,41.89c.63-1.18,1.31-2.33,1.7-3.62.18-.6.15-1.13-.15-1.67-2.04-3.69-4.07-7.38-6.1-11.07-1.68-3.05-3.36-6.1-5.04-9.15-.55-1-1.12-2-1.68-3,2.47.02,1.73-.48,2.92,1.67,3.51,6.33,7,12.66,10.5,18.99.59,1.07,1.18,2.13,1.76,3.2.13.23.29.46.16.75-.71,1.63-1.64,3.05-3.36,3.78-.23.1-.46.17-.71.12Z"/>
      <path class="cls-8" d="M26.25,9.81c.76,0,1.51.01,2.27.01,18.74,0,37.48,0,56.23,0,.95,0,.95,0,.95-.93,0-1.1-.01-2.2-.02-3.29.68,0,1.37,0,2.05-.02.34-.01.48.11.47.46-.01,1.12-.01,2.24,0,3.37,0,.36-.15.45-.49.46-1.02.02-2.04.1-3.06.1-19.17,0-38.35,0-57.52,0-.29,0-.63.16-.88-.15Z"/>
      <path class="cls-3" d="M75.23,86.58c-1.98,0-3.95.01-5.93,0-2.85-.02-4.85-2.06-4.85-4.92,0-3.95,0-7.91,0-11.86,0-2.83,2.05-4.88,4.89-4.88,3.95,0,7.91,0,11.86,0,2.89,0,4.92,2.04,4.92,4.93,0,3.95,0,7.91,0,11.86,0,2.81-2.01,4.85-4.82,4.88-2.02.02-4.05,0-6.08,0Z"/>
      <path class="cls-1" d="M68.97,83.08c-.71-.14-1.03-.57-1.03-1.29,0-4.04,0-8.09,0-12.13,0-.82.46-1.26,1.28-1.26,3.58,0,7.16,0,10.74,0,.31.15.36.44.43.73.11.46.1.92.1,1.38,0,3.54,0,7.08,0,10.62,0,.65.02,1.32-.38,1.9h0c-.15.11-.33.07-.5.07-3.43,0-6.86,0-10.29,0-.12,0-.24,0-.36-.04Z"/>
      <path class="cls-5" d="M80.12,83.05c.29-4.33.06-8.66.13-12.99,0-.56-.07-1.11-.28-1.63.44,0,.88-.02,1.32-.01.92.01,1.33.42,1.34,1.35,0,3.24,0,6.48,0,9.73,0,.78,0,1.56,0,2.34,0,.8-.41,1.23-1.19,1.25-.44.01-.88-.02-1.31-.03Z"/>
      <path class="cls-5" d="M68.97,83.08c3.13-.01,6.27-.02,9.4-.04.58,0,1.17,0,1.75,0-.14.19-.35.15-.53.15-3.38,0-6.76,0-10.13,0-.17,0-.34.03-.48-.11Z"/>
    </g>
  </g>
</svg>