<?xml version="1.0" encoding="UTF-8"?>
<svg id="Layer_2" data-name="Layer 2" xmlns="http://www.w3.org/2000/svg" viewBox="0 0 179.44 181.66">
  <defs>
    <style>
      .cls-1 {
        fill: #09090f;
      }

      .cls-1, .cls-2, .cls-3, .cls-4, .cls-5, .cls-6, .cls-7, .cls-8, .cls-9, .cls-10, .cls-11, .cls-12, .cls-13, .cls-14, .cls-15, .cls-16, .cls-17, .cls-18, .cls-19, .cls-20, .cls-21, .cls-22, .cls-23, .cls-24, .cls-25, .cls-26, .cls-27, .cls-28, .cls-29, .cls-30, .cls-31, .cls-32, .cls-33, .cls-34, .cls-35, .cls-36, .cls-37, .cls-38, .cls-39, .cls-40, .cls-41, .cls-42, .cls-43, .cls-44, .cls-45, .cls-46, .cls-47, .cls-48, .cls-49, .cls-50, .cls-51, .cls-52, .cls-53, .cls-54, .cls-55, .cls-56, .cls-57, .cls-58, .cls-59, .cls-60, .cls-61, .cls-62, .cls-63, .cls-64, .cls-65, .cls-66, .cls-67, .cls-68, .cls-69, .cls-70, .cls-71, .cls-72, .cls-73 {
        stroke-width: 0px;
      }

      .cls-2 {
        fill: #0f141f;
      }

      .cls-3 {
        fill: #091b30;
      }

      .cls-4 {
        fill: #0e1a27;
      }

      .cls-5 {
        fill: #1d232c;
      }

      .cls-6 {
        fill: #0c1a28;
      }

      .cls-7 {
        fill: #0f1d2a;
      }

      .cls-8 {
        fill: #0b1018;
      }

      .cls-9 {
        fill: #131e2c;
      }

      .cls-10 {
        fill: #081929;
      }

      .cls-11 {
        fill: #0c1c2d;
      }

      .cls-12 {
        fill: #1c2129;
      }

      .cls-13 {
        fill: #141d24;
      }

      .cls-14 {
        fill: #0a1016;
      }

      .cls-15 {
        fill: #0f1b28;
      }

      .cls-16 {
        fill: #192028;
      }

      .cls-17 {
        fill: #0c1b2a;
      }

      .cls-18 {
        fill: #0a1c2f;
      }

      .cls-19 {
        fill: #090c13;
      }

      .cls-20 {
        fill: #0e1b29;
      }

      .cls-21 {
        fill: #0a1b2c;
      }

      .cls-22 {
        fill: #0e1b28;
      }

      .cls-23 {
        fill: #131d2e;
      }

      .cls-24 {
        fill: #091d2c;
      }

      .cls-25 {
        fill: #161e28;
      }

      .cls-26 {
        fill: #0b1b2a;
      }

      .cls-27 {
        fill: #081b2e;
      }

      .cls-28 {
        fill: #091a2b;
      }

      .cls-29 {
        fill: #111d2e;
      }

      .cls-30 {
        fill: #292c33;
      }

      .cls-31 {
        fill: #0a0d13;
      }

      .cls-32 {
        fill: #0f1c26;
      }

      .cls-33 {
        fill: #0d1a29;
      }

      .cls-34 {
        fill: #081b2d;
      }

      .cls-35 {
        fill: #1d2129;
      }

      .cls-36 {
        fill: #141e28;
      }

      .cls-37 {
        fill: #131d29;
      }

      .cls-38 {
        fill: #0b101a;
      }

      .cls-39 {
        fill: #171f27;
      }

      .cls-40 {
        fill: #0a0e13;
      }

      .cls-41 {
        fill: transparent;
      }

      .cls-42 {
        fill: #1b2028;
      }

      .cls-43 {
        fill: #141d27;
      }

      .cls-44 {
        fill: #0f1c28;
      }

      .cls-45 {
        fill: #0c1c2a;
      }

      .cls-46 {
        fill: #091c2e;
      }

      .cls-47 {
        fill: #191e23;
      }

      .cls-48 {
        fill: #181e26;
      }

      .cls-49 {
        fill: #0b1b2b;
      }

      .cls-50 {
        fill: #0a1c2c;
      }

      .cls-51 {
        fill: #071b2f;
      }

      .cls-52 {
        fill: #0b1a29;
      }

      .cls-53 {
        fill: #0f1c2d;
      }

      .cls-54 {
        fill: #1a212a;
      }

      .cls-55 {
        fill: #0e1c2e;
      }

      .cls-56 {
        fill: #17202c;
      }

      .cls-57 {
        fill: #0c131c;
      }

      .cls-58 {
        fill: #090e14;
      }

      .cls-59 {
        fill: #0a1c2e;
      }

      .cls-60 {
        fill: #121a22;
      }

      .cls-61 {
        fill: #151e28;
      }

      .cls-62 {
        fill: #071a2d;
      }

      .cls-63 {
        fill: #22272f;
      }

      .cls-64 {
        fill: #0d1a28;
      }

      .cls-65 {
        fill: #0c1b2b;
      }

      .cls-66 {
        fill: #161f28;
      }

      .cls-67 {
        fill: #0a192c;
      }

      .cls-68 {
        fill: #0a1d2d;
      }

      .cls-69 {
        fill: #0c1b2d;
      }

      .cls-70 {
        fill: #0b1019;
      }

      .cls-71 {
        fill: #111b24;
      }

      .cls-72 {
        fill: #0f1c2b;
      }

      .cls-73 {
        fill: #0a0e14;
      }
    </style>
  </defs>
  <g id="Layer_2-2" data-name="Layer 2">
    <g>
      <path class="cls-41" d="M179.39,91.16c0,29.41-.02,58.82.05,88.23,0,1.79-.26,2.28-2.2,2.28-58.3-.07-116.6-.07-174.89,0-2.07,0-2.33-.62-2.33-2.45C.05,120.28.05,61.36,0,2.44,0,.56.33,0,2.36.01,60.55.08,118.74.08,176.94,0c2.24,0,2.51.58,2.5,2.62-.08,29.51-.05,59.03-.05,88.54Z"/>
      <path class="cls-10" d="M173.77,176.62c-.07.36-.24.59-.65.51-3.25-.01-6.51.42-9.76-.23-1.63-1-3.45-.66-5.19-.66-46.42-.02-92.84-.01-139.26-.02-1.35,0-2.71.03-4.06-.05-2.14-.12-3.39-1-2.79-3.39.58-1.25,1.74-1.35,2.9-1.42,1.04-.06,2.08-.04,3.12-.04,46.68,0,93.36,0,140.05,0,1.66,0,3.33-.17,4.95.3,3.81,2.74,5.79,2.04,7.33-2.48.39-1.15.62-2.4,1.44-3.39.32-.18.65-.25,1.01-.24.97.15,1.47.78,1.45,1.69-.06,3.14.56,6.33-.54,9.41Z"/>
      <path class="cls-6" d="M58.61,87.14c-4.7-6.14-7.04-13.25-8.47-20.73.42-.78.18-1.39-.49-1.88-.04-.42-.08-.83-.12-1.25.06-.77.76-1.6-.22-2.26-1.97-10.75-1.05-21.26,2.69-31.52,1.63-.07,1.73,1.12,1.74,2.25.01,1.42-.03,2.85-.55,4.21-.24.66-.32,1.35-.32,2.05-.2,1-.63,2.01.11,2.93-.38-.9-.12-1.76.26-2.62.21-.51.37-1.04.44-1.6.16-1.42.7-2.74,1.09-4.11.05-.29.13-.57.2-.86.13-.44.33-.85.68-1.16,1.59-.38,2.49.08,2.28,1.89-1.17,4.23-1.32,8.64-2.24,12.91-.61,1.71-.39,3.5-.51,5.26-.11,1.61-.11,2.87-1.81,4.36-1.63,1.44-1.35,4.97-.73,7.67.68,3.01,1.94,5.97.88,9.11.25-.27.37-.72.53-1.12.24-.59-.06-1.24.06-1.86.3-1.49.32-3.15,2.17-3.76,1.22,2.28,2.08,4.71,2.86,7.16,1.94,6.13,5.27,11.42,9.4,16.29,1.85,2.18,4.59,3.16,6.56,5.14.13.28.23.78.05.84-2.16.8-4.23,1.95-6.65,1.81-3.69-2.63-7.61-5.01-9.88-9.17Z"/>
      <path class="cls-33" d="M12.54,172.84c-.4,2.58,1.26,2.53,3.07,2.52,15.71-.03,31.41-.02,47.12-.02,32.56,0,65.12,0,97.68.04,1.16,0,2.85-.85,3.35,1.21-.96.89-2.17.61-3.28.61-48.95,0-97.9.04-146.84,0-1.8.1-2.64-1.44-3.89-2.28-1.26-.55-1.41-1.6-1.38-2.82.1-4.76-.31-9.51-.6-14.25-.1-1.63.41-3.05.82-4.53.39-1.4.73-2.81.57-4.28-.05-.41.14.02-.07-.29-.36-.53-.21.19-.37.25-.08.29-.17.56-.27.83-.51,1.45-.59,2.96-.83,4.45-.17,1.09-.38,2.34-2.05,1.75-.98-2.35.77-4.62.18-6.96.21-.63.41-1.27.62-1.9,1.12-3.58,3.42-6.75,3.73-10.62.21-.42.41-.84.62-1.26.51-.4,1.06-.56,1.69-.29.49.28.42.87.69,1.27,0-.48-.17-.93-.29-1.4.11-1.04.76-1.31,1.68-1.22.91.29,1.35.99,1.67,1.82.62,1.94-.39,3.77-.38,5.67-3.04,7.9-4.07,16.17-4.49,24.55-.55,1.67-.45,3.41-.41,5.12-.1,1.19,1.12,1.33,1.64,2.03Z"/>
      <path class="cls-52" d="M120.88,86.54c-2.3,5.54-6.04,9.65-11.71,11.85-1.27,2.23-1.04,4.49-.13,6.76,4.17.74,8.01,2.75,12.23,3.3,1.06,1.04,2.56.63,3.77,1.16,2.08.81,4.16,1.61,6.25,2.42.18.62,2.1.31.9,1.68-1.17.93.06,2.13-.36,3.15-.24,1.02-.92,1.6-1.88,1.91-2.9-.12-5.52-1.1-7.99-2.56-.77-1.2,2.18-2.73-.4-3.79-.78.93-.59,2.49-1.85,3.16-4.95-1.46-9.89-2.91-14.84-4.34-1.63-.47-2.92-1.62-2.83-3.65.46-3.79.24-7.58.14-11.37,0-.54.18-1,.55-1.39.96-.75,1.99-1.11,3.16-.54.81.95,1.86.98,2.97.83-.9-.18-1.92.22-2.68-.61-.67-1.23.47-1.89.85-2.79.77-1.03,1.88-1.42,3.09-1.65,1.57-.25,2.47-1.64,3.82-2.26,1.23-.72.62-1.87.66-2.87.02-.62.26-1.11.88-1.33.29-.06.57-.05.86.01.59.2,1.49.55,1.46,1-.21,2.54,1.39.85,2.18,1.01.44.16.71.48.88.9Z"/>
      <path class="cls-6" d="M32.55,117.87c.89-.46,1.76-.98,2.67-1.38,10.55-4.61,21.47-8.08,32.61-10.93.77-.2,1.48-.64,2.22-.97.22-.21.48-.31.77-.31,1.73.41,3.25.97,2.29,3.29,1.59.62.17-4.29,2.91-1.66.38.7.62,1.43.68,2.23-.29,2.25-2.07,2.97-3.84,3.52-3.04.95-6.13,1.76-9.24,2.46-.96,0-1.74.4-2.46,1.01-7.75,3.15-15.89,5.21-23.61,8.42-.66.27-1.4.35-2.13.19-.51-1.03-1.94-.28-2.49-1.27-.25-.98.4-1.42,1.08-1.89.92-.63.13-.9-.32-1.21-.55-.38-1.27-.63-1.15-1.51Z"/>
      <path class="cls-64" d="M73.72,6.17c10.15-3.96,20.4-3.73,30.61-.39,1.92.63,3.63,2.02,5.69,2.51.41.36.72.82,1.13,1.18.67.44,1.34.88,2,1.33.55.27.98.63.97,1.31-.06.29-.19.55-.4.76-.47.5-1.69.61-.88,1.75.95.46,1.72.99.91,2.17-.71.71-1.57.87-2.52.72-4.11-2-8.26-3.93-12.53-5.59-.71-.54-1.43-1.07-2.39-1.01-.95-.03-1.9,0-2.85.01-2.53.12-5.07-.28-7.57.33-3.97.34-7.65,2.1-11.63,2.46-.47-.1-.88-.33-1.23-.66q-.73-1.94-4.23-1.41c-.41-.21-.69-.53-.85-.96.43-1.83,1.92-2.56,3.42-3.18.85-.35,1.76-.52,2.34-1.33Z"/>
      <path class="cls-2" d="M12.54,176.59c50.41,0,100.82,0,151.22,0,3.11.3,6.29-.62,9.36.53-.87.78-1.92.63-2.96.63-53.84,0-107.68.01-161.53.02-1.04,0-2.1.14-2.97-.64-.2-.32-.15-.6.15-.83.43-.27.9-.39,1.4-.45.99-.07,1.98-.09,2.97-.01.78.26,1.62.34,2.35.75Z"/>
      <path class="cls-17" d="M113.77,16.35c.31-1.14-.98-.69-1.25-1.26-.44-1.26.63-1.77,1.25-2.5h0c.32-.32.48-.92,1.13-.61.66.61,1.33,1.22,1.99,1.82,1.02.69,1.84,1.58,2.58,2.54,1.75,1.16,2.86,2.84,3.76,4.69,1.43,2.8,1.23,6.42,4.2,8.46.19.42.37.85.56,1.27-2.76,1.36-1.9,4.01-2.32,6.26-.29,1.54.26,1.88,1.44,1.44,1.53-.57,2.03.34,2.57,1.39,0,.98.4,1.91.39,2.9.68,4.52.69,9.05.29,13.6-.12,1.31-.19,2.1-1.82,2.12-1.58.02-2.3-.61-2.44-2.1-.2-2.07-.18-4.15-.08-6.21.14-2.88-.3-5.56-1.89-8-1.17-4.08-1.37-8.4-3.06-12.38-.62-1.46-1.31-2.81-2.27-4.04-.15-.25-.25-.53-.3-.82-.81-2.7-2.08-5.05-4.74-6.37-.25-.74-.21-1.47.01-2.21Z"/>
      <path class="cls-4" d="M171.7,165.74c.03,3.11-.19,6.07-3.02,7.69-1.59.91-3.54,1.75-4.92-.59.85-1.65,3.06-.8,4.04-2.21.22-1.86.24-3.7-.3-5.52-.25-2.83-.45-5.66-.63-8.49.19-.96.49-1.89.76-2.82.38-1.3-.7.32-.71-.32-1.39-2.22-1.62-4.69-1.63-7.21,2.24-.8,2.69-.52,4.11,3.03.06-3.03-.28-5.38-1.2-7.68-.77-1.92-.29-2.86,1.93-2,1.31,3.26,2.45,6.57,2.89,10.08-.32.82-.27,1.64-.03,2.45.14.41.5-.1.09-.03-.2.04-.27-.2-.24-.44.03-.3.07-.57.31-.78,1.85,7.8,1.55,15.76,1.74,23.67.02.74-.29,1.62-1.12,2.05,0-2.87-.05-5.74,0-8.6.03-1.38-.38-2.19-2.08-2.28-1.27-2.59-.35-5.63-.7-8.5-1.41,2.86-1.05,6.47.7,8.5Z"/>
      <path class="cls-44" d="M124.43,41.38c4.07,4.25,1.98,9.56,2.45,14.43.1,1.05-.33,1.69,1.57,1.53,1.53-.13,1.69-.16,1.58-1.47-.36-4.4.72-8.88-.63-13.23.65-.54-.03-1.54.71-2.05,1.7,7.5,1.2,14.99-.2,22.46-.53,2.81-1.22,5.59-1.84,8.39-.29.15-.55.11-.78-.12-1.29-2.24.68-4.81-.78-7.05.5,2.65.29,5.32.33,7.98-.09.81-.72,1.64.1,2.41-1.07,1-.62,2.77-1.84,3.7-.51.27-.8-.04-1.06-.42-.39-1.32.28-3.49-2.4-2.95-.61-.22-1.08-.58-1.33-1.19-.17-2.31.86-4.27,1.82-6.25,1.17-1.24.74-2.83.9-4.29.03-.48.11-.96.23-1.43.38-1.16.28-2.35.22-3.54.03-5.13-.2-10.26.11-15.39.13-.59.34-1.13.84-1.51Z"/>
      <path class="cls-33" d="M73.16,12.59c.23.29.47.57.7.86-.2,1.19-1.2,1.67-2.08,2.16-5.69,3.15-9.38,8.04-12.15,13.78-.45.92-.31,2.59-2.1,2.43-.04-1.37-1.41-.43-1.87-1.08-.21.1-.55.05-.54.01.77-2.09-1.38-3.38-1.42-5.23,1.41-3.49,3.2-6.73,6.07-9.27,2.8-1.84,4.91-4.73,8.39-5.54.21.21.42.42.63.63,1.3.96,3.06.33,4.37,1.25Z"/>
      <path class="cls-15" d="M130.02,118.31c.43-.59,1.35-.84,1.25-1.81.91-.96,1.67.43,2.35.3-.88-.98-2.38-1.58-1.72-3.43.63-.82-.75-.74-.6-1.35,7.27,1.53,13.63,5.16,20.07,8.63,1.24.67,2.43,1.45,3.64,2.19.12,1.11-.67,1.78-1.42,1.31-2.36-1.45-5.4-1.33-7.45-3.4-.37-.25-.7-.61-1.22-.37.25.17.56.19.85.28,2.43,2.2,2.46,3.57.1,4.56-4.89-1.57-9.48-3.93-14.38-5.47-.69-.22-1.3-.64-1.47-1.44Z"/>
      <path class="cls-4" d="M162.55,128.38c3.34,2.94,5.76,6.52,7.37,10.66-3.16-.54-3.03,2.46-4.26,3.98-.43.2-.86.21-1.3.05-.47-.25-.87-.61-1.07-1.08-2.26-5.16-5.83-9.2-10.42-12.4-.34-.24-.53-.62-.63-1.04.02-1.03,1.01-1.89,1.51-1.6,2.8,1.63,6.21-.96,8.82,1.43Z"/>
      <path class="cls-72" d="M162.55,128.38c-1.56.19-3.52-2.02-4.65.77-.7-.34-1.52-.55-2.08-1.04-1.31-1.15-2.34-.89-3.33.37-2.63-.38-4.91-1.34-6.26-3.81,1.03-1.17.93-1.77-.58-3.77.07-.34.28-.56.63-.63,2.23,1.88,5.54,1.44,7.7,3.53.02.02.68-.62,1.04-.95,3.11,1.04,5.34,3.27,7.55,5.54Z"/>
      <path class="cls-65" d="M22.53,123.36c.19-.59.74-.59,1.2-.75.73.15,1.29.59,1.84,1.05,1.96,1.63,1.97,2.14-.2,3.53-.73.47-1.3.95-1.53,1.79-.23.68-.45,1.37-.77,2.01-.21.38-.5.68-.91.85-1.59.13-2,1.58-2.84,2.56-.19.21-.43.35-.7.43-.75-.1-1.21-.68-1.77-1.09-.69-.6-1.16-1.29-.98-2.27,1.16-1.91,3.94-2.84,3.48-5.74.2-.17.4-.33.6-.5,1.06-.34,2.19-.6,2.58-1.87Z"/>
      <path class="cls-7" d="M124.39,77.69c.24.22.47.44.71.66-.47,3.21-2.78,5.48-4.22,8.19-.29-.24-.57-.47-.86-.71-.46-2.19-2.66-.92-3.74-1.87h-.65c-.36-1.57.34-2.61,1.62-3.37,1.86-.11,3.93.12,3.05-2.97-.24-.83.4-1.79,1.5-2.03,1.35.09,1.83,1.27,2.59,2.1Z"/>
      <path class="cls-4" d="M58.61,87.14c3.03,3.32,6.83,5.75,10.18,8.71.57,1.22,1.67.77,2.64.96,1.08.21,2.64.22,2.58,2.01-.08,2.46-1.71,4.48-3.54,4.47-.33-1.21.21-2.49-.35-3.67-.5-1.89-2.48-2.05-3.68-3.12-3.09-2.73-6.46-5.19-7.82-9.35Z"/>
      <path class="cls-6" d="M23.17,129.01c-.01-1.06.05-2.2,1.34-2.39,3.48-.51,1.93-1.47.32-2.59-.47-.33-.74-.94-1.1-1.42.34-.47.6-1.03,1.31-1.02,2.08,1.55,2.3-.52,3.04-1.57.25-.48.7-.47,1.14-.48.65-.28,1.12.05,1.57.46.39.99.58,2.12,1.83,2.49.37.59,1.42.57,1.34,1.55-.49,1.04-1.44,1.43-2.43,1.76-.99.3-2.2,0-2.87,1.11-1.17,1.25-2.57,2.19-4.11,2.93-.69.12-1.1-.24-1.38-.82Z"/>
      <path class="cls-45" d="M165.64,142.79c.46-.98-.12-2.18.62-3.1,1.03-1.29,2.24-1.59,3.66-.66.07.19.14.39.22.58-1.22.09-2.2-.1-1.27,1.9,1.24,2.68,2.29,5.66.55,8.65-.08.15-.3.21-.7.48-.32-2.07-.25-4.41-3.02-4.73-.23-.17-.39-.4-.48-.67-.21-.88.2-1.65.43-2.46Z"/>
      <path class="cls-32" d="M129.39,39.5c-.84.38-1.57-1.91-2.48-.1-.6-.5-2.09.37-1.92-1.36.16-1.64.06-3.3.19-4.94.13-1.68.91-2.72,2.81-2.34,1.14,2.59,1.47,5.38,1.91,8.13-.09.28-.26.48-.51.61Z"/>
      <path class="cls-43" d="M19.35,125.73c1.89,3.47-1.62,4.09-3.06,5.8-.6.85-.89,1.94-1.87,2.5-.81.02-1.23.44-1.25,1.25-.21.23-.41.22-.62,0-.6,0-1.21,0-1.81,0,2.29-3.71,4.79-7.24,8.62-9.55Z"/>
      <path class="cls-11" d="M53.7,25.52c.35.49.69.99,1.05,1.48.62.86,3.8,1.39.34,2.75.19.33.38.66.58.99,0,.42,0,.83,0,1.25-.27.19-.52.21-.72-.1-.04.52.56.4.72.73-.58,1.41-1.26,2.8-1.25,4.38-.9.62-1.48.27-1.88-.63-.16-2.29,1.86-4.77-.55-6.88.29-1.45.77-2.81,1.72-3.98Z"/>
      <path class="cls-47" d="M5.67,176.6c0,.18,0,.36,0,.54-2.44-1.29-1.78-3.53-1.69-5.59.42-2.18-.22-4.42.4-6.59-.39-5.38.34-10.65,1.38-15.9,1.4,2.31-.78,4.58-.09,6.88.95,1.11.85,2.4.63,3.7-.89,4.85-.26,9.73-.18,14.6.01.85.12,1.65-.45,2.36Z"/>
      <path class="cls-39" d="M68.16,10.71c-.71.9-1.08,2.02-2.71,1.97-2.21-.07-2.23,3.24-4.51,3.36-.39.02-.78.14-1.18.21,4-4.27,8.19-8.27,13.95-10.08-.37.93-.47,1.84-2.02,1.82-1.61-.02-2.53,1.57-3.55,2.71Z"/>
      <path class="cls-48" d="M10.11,136.54c.88,1.88,1.2,3.17-.88,5.03-1.18,1.06-1.23,3.98-2.84,5.59.7-3.73,1.69-7.36,3.73-10.62Z"/>
      <path class="cls-13" d="M127.44,29.49c-2.44-.87-3.82-2.43-3.71-5.19.04-1.08-.32-2.18-.49-3.27,2.2,2.42,3.05,5.51,4.2,8.46Z"/>
      <path class="cls-22" d="M28.08,120.03c.03,1.27.48,2.76-1.3,3.24-1.37.37-1.79-.46-1.74-1.67,1.01-.52,2.03-1.05,3.04-1.57Z"/>
      <path class="cls-22" d="M30.66,120.26c-.48-.24-.96-.47-1.44-.71.92-.93,2.13-1.31,3.33-1.67.41.38.82.75,1.23,1.13-.8,1.03-1.59,2.06-3.12,1.25Z"/>
      <path class="cls-31" d="M109.05,105.14c-1.37-2.28-1.57-4.54.13-6.76-.66,2.24-.41,4.5-.13,6.76Z"/>
      <path class="cls-49" d="M4.38,164.96c-.17,2.19.5,4.44-.4,6.59-.03-2.21-.34-4.43.4-6.59Z"/>
      <path class="cls-9" d="M126.94,74.65c-.84-.45-1.48-.96-.66-1.97.42-.41.51-1.15,1.25-1.25.18,0,.36,0,.53,0-.11,1.17-.45,2.25-1.12,3.22Z"/>
      <path class="cls-35" d="M22.53,123.36c.24,2.14-.87,2.42-2.58,1.87.63-.94,1.64-1.35,2.58-1.87Z"/>
      <path class="cls-73" d="M70.11,99.61c1.01,1.13.36,2.5.55,3.75.36.42.38.84,0,1.25-.2,0-.4,0-.6,0,.02-1.66.03-3.33.05-4.99Z"/>
      <path class="cls-16" d="M125.05,109.6c-1.35-.09-2.9.47-3.77-1.16,1.34.12,2.62.44,3.77,1.16Z"/>
      <path class="cls-63" d="M119.48,16.34c-1.15-.55-1.99-1.43-2.58-2.54,1.35.35,2.18,1.23,2.58,2.54Z"/>
      <path class="cls-70" d="M129.39,39.5c.17-.2.34-.41.51-.61.07.56.13,1.12.2,1.69-.15.71.06,1.55-.71,2.05,0-1.04,0-2.08,0-3.13Z"/>
      <path class="cls-54" d="M111.15,9.47c-1.53.72-1.01-.54-1.13-1.18,1.05-.26,1.33.23,1.13,1.18Z"/>
      <path class="cls-14" d="M49.64,64.52c.33-.13.77-.44.93.06.21.64.18,1.33-.44,1.82-.16-.63-.33-1.25-.49-1.88Z"/>
      <path class="cls-19" d="M49.29,61.01c1.19.64.89,1.43.22,2.26-.07-.75-.15-1.51-.22-2.26Z"/>
      <path class="cls-54" d="M114.91,11.98c-.38.2-.76.41-1.13.61-.21-.6-.41-1.19-.62-1.79.87-.03,1.47.33,1.75,1.18Z"/>
      <path class="cls-38" d="M173.15,150.9c-.04.4-.07.8-.14,1.63-.64-1.25-.68-2.05.02-2.83.04.4.08.8.12,1.2Z"/>
      <path class="cls-57" d="M168.76,171.59c-1.5,1.08-3.42.47-5,1.25-.92-1.02-2.15-.6-3.24-.6-48.25-.02-96.5-.02-144.75,0-1.09,0-2.31-.42-3.24.61-.97-.12-2.29.44-2.49-1.24,1.11-1.03,2.51-.88,3.85-.88,50.87.01,101.75-.06,152.62.03.41.02.81.09,1.21.2.38.16.72.38,1.03.65Z"/>
      <path class="cls-41" d="M167.84,171.48v.03c-1.32-.46-2.68-.24-4.02-.24-49.53-.01-99.06-.01-148.58-.01q-5.14,0-4.72-5.29c.24-8.58,1.26-17.01,4.53-25.04.77-2.38,1.24-4.95,3.8-6.23l-.02.02c.85-1.25,1.63-2.58,3.15-3.17.2-.18.4-.36.6-.54.23-.86.98-1.09,1.67-1.39l3.95-3.01c.72-1.24,2.16-.76,3.17-1.31.8-.46,1.61-.92,2.41-1.38.36-.37.79-.51,1.3-.4,8.73-2.98,17.47-5.96,26.2-8.94.53-.58,1.41-.59,1.93-1.18,3.46-.89,6.94-1.69,10.37-2.7,1.35-.4,2.71-1.12,2.61-2.97-1.05-3.52-.71-7.15-.79-10.73-.08-.96-.17-1.92-.39-2.87-11.48-6.25-15.64-17.28-18.83-28.95-1.82-1.82-.99-4.37-1.79-6.48-.2-1.28-.33-2.57.08-3.84.69-3-.13-6.07.45-9.07.88-4.65.8-9.49,2.61-13.97,1.73-2.86,2.89-6.03,4.87-8.77,3.02-4.18,7.04-7.12,11.46-9.6,3.83-1.39,7.72-2.54,11.81-2.87,2.54-.37,5.1-.07,7.65-.17.87,0,1.73-.01,2.6.01.95.29,1.98.31,2.85.86,4.34,1.51,8.55,3.28,12.48,5.7,1.04.39,2.08.79,2.74,1.79,2.17,1.71,3.74,3.85,4.65,6.46l-.02-.03c3.58,4.57,4.46,10.09,5.44,15.57.13.7-.01,1.45.26,2.15,0,5.22,0,10.43.01,15.65-.49,1.11,0,2.35-.47,3.46-.05.36-.1.72-.15,1.07-.59,1.47.17,3.26-1.07,4.57-.66,2.08-1.69,4.05-1.94,6.26-.23,2.68-.83,5.19-3.17,6.9-.63,1.03-1.27,2.07-1.9,3.1-.28.39-.55.78-.83,1.17-.04.59-.29,1.11-.6,1.59-1.05,1.51-2.41,2.74-3.63,4.09-1.21-.06-2.28.21-3.07,1.22-1.01,1.76-3.23,1.78-4.52,3.14-.1.24-.21.47-.31.71.24,3.96.31,7.91-.04,11.86-.14,1.53.85,2.39,2.06,2.71,5.18,1.37,10.37,2.68,15.34,4.73.85-.51,1.43-.17,1.88.59,2.7.85,5.41,1.7,8.11,2.55,5.4,2.12,10.8,4.23,16.21,6.35,2.09,1.27,4.18,2.54,6.26,3.81,5.39,3.6,9.61,8.19,11.98,14.32.89.67.74,1.77,1.1,2.67-.08.19-.04.34.12.47.58,2.56,1.16,5.13,1.73,7.69.67.72.38,1.52.2,2.31.21,3.14.42,6.28.63,9.41.01,2.06.82,4.17-.42,6.14Z"/>
      <path class="cls-69" d="M55.14,58.67c.35,2.17.69,4.34,1.04,6.51-.56,1.73-2.41,3.18-.93,5.42.17.26-1.77,1.91-.85,3.89-1.55-.76-1.66-1.73-1.48-2.18.97-2.52.22-5.04-.55-7.2-1.12-3.13-.48-6.11-.46-9.16.02-2.39.03-2.39,2.42-2.19.44-2.64-.55-5.38.59-7.97,0,3.13,0,6.25,0,9.38-.4,1.69-.14,3.38-.19,4.66-.08-.16-.13-.7.42-1.16Z"/>
      <path class="cls-26" d="M75.01,94.12c.86.27,1.08.95,1.13,1.75-.6,3.31.32,6.69-.49,9.98-.37.02-1.31-.65-1.01.23.74,2.15-1.72,1.13-1.9,2.49.85-2.39-.67-3.15-2.09-3.97,0-.42,0-.83,0-1.25,2.72-.52,1.11-3.56,2.74-4.71-.8-.45-1.58-1.22-2.4-1.27-1.19-.07-2.03-.18-2.22-1.52.37.15.74.3,1.11.45.75-2.47,2.51-1.82,4.25-1.45.23.05.58-.47.87-.72Z"/>
      <path class="cls-28" d="M49.41,48.04c0-1.14.03-2.29,0-3.43-.06-1.85.81.57,1.34-.32.66-1.12.54.26.49.39-.78,2.04-.58,4.03-.01,6.09.24.86.15,2.19-1.08,2.14-1.13-.04-.64-1.31-.7-2.06-.08-.93-.02-1.87-.02-2.81Z"/>
      <path class="cls-11" d="M53.78,38.25c-.32,1.57-.65,3.14-.97,4.71-.67-1.81-1.73-3.56-.28-5.34.73-.43,1.29-.49,1.25.63Z"/>
      <path class="cls-33" d="M53.78,38.25c-.27-.51-.74-.61-1.25-.63-.64-.42-.64-.83,0-1.25.63.21,1.25.42,1.88.63-.01.52-.12.98-.62,1.25Z"/>
      <path class="cls-33" d="M55.66,32.62c-1.1-.12-1.89-.53-1.74-2.02.64.51,1.19.95,1.74,1.39,0,.21,0,.42,0,.63Z"/>
      <path class="cls-49" d="M10.52,165.97q.19,5.18,5.43,5.18c49.42,0,98.83,0,148.25.01,1.21,0,2.49-.37,3.64.35-.93.03-1.87.09-2.8.09-51.66,0-103.33,0-154.99,0,.21-1.87-.51-3.82.47-5.63Z"/>
      <path class="cls-49" d="M5.67,159.69c0-1.25,0-2.5,0-3.75,1.51-.2,1.24-1.36,1.24-2.34,0-1.64.17-3.22,1.26-4.55-.06-.96.14-1.83.87-2.66.9,1.32,1.39,2.78.95,4.09-2.39,7.04-.72,14.15-.61,21.24.01.78-1.36,2.11.67,2.37-.16,2-.58,2.15-2.98,1.03-2.07-3.38-1.15-7.23-1.64-10.85-.2-1.48-.39-3.09.24-4.58Z"/>
      <path class="cls-43" d="M18.85,134.7c-1.27,2.08-2.53,4.15-3.8,6.23.21-1.88.41-3.77.62-5.65-.19-1.44,1.4-1.1,1.88-1.88.44.43.87.87,1.31,1.3Z"/>
      <path class="cls-50" d="M17.54,133.4c.18,1.43-1.02,1.48-1.88,1.88-.42-.42-.83-.83-1.25-1.25.05-1.27.87-1.95,1.87-2.5,0,.9.42,1.53,1.25,1.88Z"/>
      <path class="cls-10" d="M7.54,174.72c.97.34,2.13,1.43,2.5-.63,1.57.1,1.31,2.02,2.5,2.5-.83,0-1.67,0-2.5,0-.78-.69-1.86,0-2.65-.58-.22-.46-.23-.9.16-1.29Z"/>
      <path class="cls-50" d="M12.54,135.28c.21,0,.41,0,.62,0,1.06,1.01-.09,1.69-.62,2.51v-2.51Z"/>
      <path class="cls-21" d="M109.27,107.18c1.02,0,1.92-.04,2.8,0,1.49.08,2.2,1.36,3.1,2.25.24.23-.18,1.34-.96,1.2-1.31-.24-3.28.23-3.52-1.6-.15-1.14-1.24-.8-1.42-1.86Z"/>
      <path class="cls-55" d="M121.91,115.76c-.63-.2-1.26-.4-1.88-.59-.34-1.42,1.07-2.59.53-4.14.97,1.12,3.12.52,3.24,2.69.09,1.49-1.26,1.37-1.88,2.04Z"/>
      <path class="cls-18" d="M116.28,83.96c.7-.05,1.43-.01,2.11-.17,2.05-.48,1.92.7,1.63,2.04-.58.82-1.42,1.03-2.35.93-.46-.05-.42-.18-.11-1.13.38-1.13-1.13-.89-1.28-1.67Z"/>
      <path class="cls-29" d="M131.9,113.37c.78,1.4,1.5,2.86,3.17,3.52-1.38.71-2.54-.31-3.79-.4-.13-.56-.1-1.23-.42-1.65-1.28-1.72.15-1.38,1.04-1.48Z"/>
      <path class="cls-1" d="M102.62,107.73c-.21-3.96-.27-7.91.04-11.86.77,3.96.85,7.91-.04,11.86Z"/>
      <path class="cls-61" d="M110.57,90.8c.9-1.58,1.88-3.11,3.19-4.39.87.42,1.27.99.64,1.91-1.41.61-2.21,2.18-3.83,2.47Z"/>
      <path class="cls-61" d="M102.98,95.16c.8-2.07,3.11-1.95,4.52-3.14.17,1.13-1.33,1.47-1.22,2.57h0c-1.15-.12-2.24.17-3.3.57Z"/>
      <path class="cls-46" d="M106.28,94.59c1.24-.24,2.64-.98,3.13,1.2-1.14-.18-2.64.86-3.13-1.2,0,0,0,0,0,0Z"/>
      <path class="cls-60" d="M114.4,88.33c-.21-.64-.43-1.28-.64-1.91.35-.43.69-.87,1.04-1.3.5,1.15,1.88,2.41-.4,3.22Z"/>
      <path class="cls-20" d="M124.65,114.39c-.06-.45.06-.77.41-.71.2.04.4.38.49.63.04.13-.15.34-.24.52-.24-.16-.48-.32-.65-.44Z"/>
      <path class="cls-67" d="M30.66,120.26c1.04-.42,2.08-.83,3.12-1.25.81.03,1.92-.15,2.07.83.14.84-.6,1.42-1.63,1.36-.58-.04-.86.46-1.07.94-.19.23-.23.6-.62.63-2.14.3-2.66-.61-1.87-2.5Z"/>
      <path class="cls-27" d="M68.87,108.56c-2.48,3-5.22,1.5-7.67,2.27,1.7-3.72,4.65-1.75,7.67-2.27Z"/>
      <path class="cls-73" d="M75.65,105.86c.3-3.32-.6-6.7.49-9.98.33,3.95.25,7.9.05,11.85-.65-.49-.51-1.2-.54-1.87Z"/>
      <path class="cls-53" d="M41.63,115.27c.71.06,1.46.04,1.24.97-.16.68-.44,1.46-1.35,1.41-.68-.04-1.64-.2-1.6-1.01.05-.87.94-1.22,1.7-1.36Z"/>
      <path class="cls-51" d="M53.04,114.16c-.01.42-.07.9-.6.8-.32-.06-.72-.39-.85-.7-.17-.41.09-.78.6-.78.43,0,.77.18.85.67Z"/>
      <path class="cls-22" d="M32.54,122.76c.21-.21.42-.42.62-.63.26.98,2.12-.25,1.92,1.38-.31.55-.78.56-1.3.4-.41-.39-.83-.77-1.24-1.16Z"/>
      <path class="cls-30" d="M63.21,113.39c-.14,1.23-.99,1.29-1.93,1.18.11-1.28,1.01-1.25,1.93-1.18Z"/>
      <path class="cls-62" d="M98.32,7.52c-2.76.61-5.36.62-8.03.35-3.23-.33-6.54.22-9.82.31-.72.02-1.91.43-1.97-.79-.04-.85.86-1.6,1.68-1.57,5.54.16,11.15-.97,16.6.8.55.18,1.03.6,1.54.91Z"/>
      <path class="cls-59" d="M73.16,12.59c-1.68.36-3.32.59-4.37-1.25,1.22.72,1.11-1.58,2.78-1.02,1.54.52,1.38,1.31,1.6,2.27Z"/>
      <path class="cls-56" d="M93.78,10.59c-2.7,0-5.41-.01-8.11-.02,2.65-1.1,5.42-.23,8.12-.49.2.12.26.23.19.34-.07.11-.13.17-.2.17Z"/>
      <path class="cls-68" d="M113.77,12.59c.1,1.09-.9,1.63-1.25,2.5-1.2.09-.98-.86-.9-1.44.18-1.28,1.29-.99,2.15-1.06Z"/>
      <path class="cls-12" d="M113.73,18.97c-.83-.67-1.65-1.33-2.48-2,.91.07,1.74-.2,2.52-.63.39.62.39,1.25,0,1.87.29.27.27.52-.05.76Z"/>
      <path class="cls-36" d="M98.77,11.27c-.91.04-1.84.22-2.6-.52.11-.37.5-.43.72-.67.88,0,1.5.4,1.87,1.19Z"/>
      <path class="cls-40" d="M96.9,10.08c-.24.22-.48.45-.72.67-.8-.05-1.6-.11-2.39-.16,0-.17,0-.34,0-.51,1.04,0,2.07,0,3.11,0Z"/>
      <path class="cls-33" d="M7.54,174.72c0,.42,0,.83,0,1.25-.04.38-.44.39-.62.62-.42,0-.83,0-1.25,0-.93-5.05-.54-10.16-.63-15.25-.01-.63.07-1.23.62-1.65.01,5.09.21,10.15,1.88,15.03Z"/>
      <path class="cls-49" d="M6.92,176.59c.21-.21.41-.41.62-.62.86.09,1.84-.29,2.5.62-1.04,0-2.08,0-3.12,0Z"/>
      <path class="cls-25" d="M124.32,42.92c-1.28-6.11-2.6-12.2-5.7-17.72,3.54,1.39,3.59,5.17,4.41,7.84.77,2.53,1.73,5.44,1.4,8.34-.03.51-.07,1.03-.11,1.54Z"/>
      <path class="cls-25" d="M113.73,18.97c.02-.25.03-.5.05-.76,3.54-.28,3.23,3.87,5.67,5.01.81.38-.64,1.25-.81,2-1.64-2.08-3.28-4.17-4.91-6.25Z"/>
      <path class="cls-62" d="M171.89,155.01c0,3.49.03,6.6-.03,9.7,0,.39.65,1.34-.59,1.24-.71-.06-1.7.04-1.74-.88-.1-2.79-.14-5.6.08-8.38.04-.55,1.32-1.01,2.28-1.69Z"/>
      <path class="cls-37" d="M167.84,171.48c.94-1.99.01-4.11.42-6.14,1.02,2.02.29,4.17.5,6.25-.31-.04-.61-.07-.92-.11Z"/>
      <path class="cls-58" d="M167.63,155.93c-.07-.77-.13-1.54-.2-2.31.05-.19.06-.41.16-.57.18-.28.49-.37.5.06.01.96.35,1.99-.46,2.82Z"/>
      <path class="cls-23" d="M127.52,71.43c-.24.6-.65,1.01-1.25,1.25-.21-3.12-.43-6.24-.64-9.42,2.1.51,3.64.93,2.18,3.59-.67,1.21-.23,3.03-.29,4.58Z"/>
      <path class="cls-71" d="M117.53,80.84c1.06-2.3,2.11-4.6,3.17-6.9.4.21.8.42,1.2.62.37.42.33.84,0,1.25-.84.73-1.17,1.54-.95,2.73.44,2.46-.62,3.13-3.41,2.3Z"/>
      <path class="cls-3" d="M121.9,75.81c0-.42,0-.83,0-1.25.97-.02,1.91-.68,2.86-.11-.12,1.07-.25,2.15-.37,3.23-1.21-.12-1.7-1.2-2.5-1.87Z"/>
      <path class="cls-66" d="M122.64,67.67c.36-1.52.72-3.05,1.07-4.57-.31,1.54,1.03,3.46-1.07,4.57Z"/>
      <path class="cls-66" d="M123.86,62.03c-.07-1.18-.27-2.39.47-3.46-.07,1.17.47,2.41-.47,3.46Z"/>
      <path class="cls-34" d="M146.27,120.26c-.21.21-.42.42-.63.63-.72.22-1.45,1.07-2.16.18-.18-.23.04-1.03.33-1.34,1.06-1.17,1.73-.1,2.46.54Z"/>
      <path class="cls-24" d="M164.02,131.88c.34.93.62,1.89,1.02,2.8.36.79.7,1.5-.09,2.2-.29.25-.68.78-.98.37-.45-.62-.99-1.47-.89-2.13.17-1.09.6-2.14.94-3.24Z"/>
      <path class="cls-42" d="M165.57,145.46c-.67-.76-.92-1.7-1.1-2.67.39,0,.78,0,1.17,0,1.12.92-.26,1.77-.07,2.66Z"/>
      <path class="cls-45" d="M164.74,139.14c.04-.89.4-1.43,1.23-1.54.25,1.1-.66,1.22-1.23,1.54Z"/>
      <path class="cls-43" d="M21.98,131.55c-1.05,1.06-2.1,2.11-3.15,3.17.75-1.35.42-3.79,3.15-3.17Z"/>
      <path class="cls-5" d="M24.25,129.62c-.26.82-1.02,1.04-1.67,1.39.19-.67.39-1.33.58-2,.36.2.73.4,1.09.61Z"/>
      <path class="cls-22" d="M31.37,125.29c-.98.62-1.95,1.27-3.17,1.31.34-2.18,2.04-1.06,3.17-1.31Z"/>
      <path class="cls-8" d="M55.14,58.67l-.26,1.46c-.38-1.69-.93-3.35.03-4.96.08,1.17.15,2.33.23,3.5Z"/>
      <path class="cls-33" d="M8.17,149.05c.38,0,.99-.71,1.04.22.02.37-.49.76-.77,1.15-.09-.45-.18-.91-.27-1.36,0,0,0,0,0,0Z"/>
      <polygon class="cls-44" points="170.33 174.09 165.97 137.6 145.64 120.88 106.28 107.73 106.28 96.32 117.56 85.62 124.1 66.4 127.12 38.46 118.23 21.71 102.05 8.96 76.71 8.96 56.18 25.2 51.23 44.67 52.92 72.3 65.03 88.61 73.4 98.64 74.65 106.09 68.87 108.56 42.88 116.23 24.5 126.63 9.89 144.12 8.17 163.87 9.76 174.92 170.33 174.09"/>
    </g>
  </g>
</svg>