<?xml version="1.0" encoding="UTF-8"?>
<svg id="Layer_2" data-name="Layer 2" xmlns="http://www.w3.org/2000/svg" viewBox="0 0 180 180">
  <defs>
    <style>
      .cls-1 {
        fill: #bb9678;
      }

      .cls-1, .cls-2, .cls-3, .cls-4, .cls-5, .cls-6, .cls-7, .cls-8, .cls-9, .cls-10, .cls-11, .cls-12, .cls-13, .cls-14, .cls-15, .cls-16, .cls-17, .cls-18, .cls-19, .cls-20, .cls-21, .cls-22, .cls-23, .cls-24, .cls-25, .cls-26, .cls-27 {
        stroke-width: 0px;
      }

      .cls-2 {
        fill: #fedcc2;
      }

      .cls-3 {
        fill: #fddcc2;
      }

      .cls-4 {
        fill: #f6ebe2;
      }

      .cls-5 {
        fill: #b5ab33;
      }

      .cls-6 {
        fill: #c9ae97;
      }

      .cls-7 {
        fill: #383631;
      }

      .cls-8 {
        fill: #fdfcfb;
      }

      .cls-10 {
        fill: #e7ddd4;
      }

      .cls-11 {
        fill: #c0b646;
      }

      .cls-12 {
        /* fill: #fff; */
        fill:transparent;
      }

      .cls-13 {
        fill: #fcfbf9;
      }

      .cls-14 {
        fill: #d1cc2a;
      }

      .cls-15 {
        fill: #010100;
      }

      .cls-16 {
        fill: #f9ea12;
      }

      .cls-17 {
        fill: #666464;
      }

      .cls-18 {
        fill: #dbce24;
      }

      .cls-19 {
        fill: #f6e813;
      }

      .cls-20 {
        fill: #c4b64f;
      }

      .cls-21 {
        fill: #dcae8c;
      }

      .cls-22 {
        fill: #d3a07c;
      }

      .cls-23 {
        fill: #96752c;
      }

      .cls-24 {
        fill: #c0b831;
      }

      .cls-25 {
        fill: #fac713;
      }

      .cls-26 {
        fill: #525050;
      }

      .cls-27 {
        fill: #c9bd56;
      }
    </style>
  </defs>
  <g id="Layer_1-2" data-name="Layer 1">
    <g>
      <path class="cls-12" d="M33.38,180H0V0h180v41.88c-.25.11-.45-.06-.66-.14-4.7-1.87-9.26-4.05-13.98-5.86-2.76-1.06-5.56-2.03-8.48-2.61-1.08-.22-2.06-.75-3.08-1.16-2.75-1.08-5.17-2.71-7.25-4.78-1.26-1.25-2.5-2.44-4.13-3.19-.48-.22-.86-.62-1.23-.99-1.17-1.13-2.41-2.19-3.52-3.38-.72-.77-1.59-1.25-2.65-1.34-.29-.02-.51-.21-.72-.38-1.37-1.17-2.79-2.27-4.18-3.41-.68-.56-1.47-.98-2.13-1.59-.45-.42-.87-.86-1.23-1.35-.98-1.33-2.01-2.62-3.14-3.82-1.24-1.31-2.76-2.13-4.51-2.58-1.89-.49-3.8-.82-5.73-1.05-.66-.08-1.26,0-1.88.34-.89.49-1.93.62-2.9.88-2.74.73-5.46,1.5-8.11,2.52-.2.08-.4.16-.62.14-1.92-.21-3.79.14-5.66.5-.58.11-1.18.07-1.77.04-2.48-.14-4.83.48-7.13,1.28-1.54.53-3.05,1.14-4.46,1.98-2.99,1.8-5.58,4.08-7.91,6.68-1.98,2.21-3.83,4.51-5.43,7.02-.93,1.46-1.75,2.99-2.66,4.47-.06.09-.13.19-.13.29-.02,1.05-.74,1.77-1.24,2.59-1.64,2.67-3.28,5.34-4.43,8.26-.4,1.02-.72,2.07-.51,3.21.06.32.3.56.28.9-.37.5-.95.69-1.44,1.02-1.82,1.21-3.53,2.53-5.15,4.01-3.29,3.01-5.88,6.54-7.82,10.53-1.79,3.67-2.95,7.55-3.39,11.64-.22,2-.3,4.01-.2,6.01.13,2.67.59,5.29,1.31,7.87,1.35,4.79,3.59,9.13,6.74,12.97,4.2,5.12,9.43,8.81,15.67,11.06,2.78,1,5.64,1.64,8.57,1.96,2.74.3,5.48.24,8.22-.13,4.17-.56,8.13-1.78,11.86-3.73,3.17-1.66,6.04-3.71,8.6-6.22,2.93-2.87,5.33-6.12,7.13-9.8,1.95-3.97,3.15-8.16,3.52-12.57.3-3.6.15-7.18-.6-10.72-.06-.27-.15-.53-.08-.81.22-.29.45-.12.66.01.22.13.42.28.67.34,3.35.9,6.74,1.61,10.18,2.03,2.31.29,4.6.71,6.92.83,3.58.18,7.15.17,10.54-1.3,1.36-.59,2.56-1.4,3.64-2.39.67-.61,1.41-1.15,1.96-1.89.16-.21.4-.34.67-.3,1.04.13,2.07.1,3.06.64,3.14,1.72,6.23,3.51,9.19,5.52.51.34.79.92,1.32,1.27,1.74,1.13,3.53,2.15,5.45,2.97,3.53,1.51,7.2,2.59,10.9,3.56.86.22,1.71.5,2.58.66.19.04.36.12.5.26v99.4h-50.9c.13-.75,0-1.54.26-2.26.35-.97.48-1.96.46-2.98-.02-1.25,0-2.49,0-3.74,0-.21,0-.42-.03-.63-.15-.96-.05-1.09.9-1.09,2.87,0,5.75,0,8.62,0,1.14,0,1.52-.38,1.55-1.51.02-.82.4-1.55.52-2.34.21-1.39.04-2.79.13-4.17.07-1.07-.22-2.09-.34-3.13-.07-.58-.62-.54-1.06-.57-1.6-.38-3.23-.35-4.86-.34-.15,0-.3,0-.44,0-1.19-.01-1.41-.3-1.05-1.43.28-.85.42-1.74.46-2.62.07-1.99.11-3.97-.31-5.94-.1-.47-.42-.6-.81-.68-1.25-.26-2.52-.32-3.78-.37-.78-.04-1.57.02-2.35-.02-.74-.03-.81-.2-.83-.93-.03-.79.25-1.49.4-2.23.36-1.73.43-3.48.29-5.24-.06-.8-.18-1.6-.31-2.39-.07-.42-.27-.68-.68-.82-.79-.27-.98-.61-.85-1.43.05-.31.18-.61.26-.92.21-.84.38-1.69.36-2.57-.04-1.86.14-3.72-.3-5.56-.11-.48-.28-.78-.76-.87-.85-.17-1.7-.38-2.57-.38-3.87-.02-7.74-.11-11.61-.15-21.85-.26-43.7-.05-65.55-.08-3.19,0-6.39-.02-9.57.14-2.03.1-4.07-.11-6.08.24-.66.11-1.36.11-1.94.51-.31.54-.3,1.16-.37,1.75-.27,2.21-.22,4.42.12,6.63.05.3.17.57.27.84.11.3.17.6.14.93-.08.88.47,1.47,1.38,1.51.97.04.94.1.88,1.05-.17,2.65-.46,5.31.4,7.91.07.22.12.46.09.69-.13,1.1.69,1.52,1.57,1.52,1.54,0,3.09,0,4.63,0,.19,0,.38,0,.57.01.33.03.45.12.37.53-.18.9-.38,1.82-.39,2.74-.03,1.73-.15,3.47.22,5.18.08.37.15.74.28,1.1.11.3.18.6.16.93-.06.96.36,1.4,1.32,1.42,1.52,0,3.04,0,4.56,0,.98,0,1.05.12.91,1.07-.37,2.57-.41,5.13.36,7.65.22.72.03,1.01-.75.97-1.73-.11-3.46.09-5.19.08-1.54,0-3.08.08-4.61.31-1.09.16-1.2.24-1.35,1.3-.38,2.8-.5,5.58.27,8.35.18.66.22,1.36.31,2.04Z"/>
      <path class="cls-2" d="M180,43.78v23.61c-.22.2-.47.13-.72.1-5.19-.71-10.27-1.94-15.32-3.27-4.95-1.31-9.88-2.7-14.72-4.37-2.04-.71-4.05-1.48-6.03-2.35-.17-.08-.35-.15-.53-.22-1.11-.48-2.18-.64-3.34-.02-.77.41-1.66.64-2.54.76-.51.07-.89.37-1.28.67-.32.16-.66.09-.99.12-.49.04-.93.21-1.1.7-.19.52.13.88.49,1.2.22.19.49.32.72.51.15.12.4.2.28.49-.3.23-.65.16-.98.17-2.98.08-5.96,0-8.94-.15-5.45-.28-10.9-.22-16.35-.22-1.78,0-3.47-.47-5.2-.76-3.34-.56-6.62-1.38-9.96-1.95-1.9-.33-3.8-.63-5.71-.85-1.96-.23-3.75-1-5.58-1.66-3.16-1.15-6.31-2.32-9.62-2.99-1.18-.24-2.37-.45-3.58-.33-.15.02-.3-.01-.43-.09-.21-.17-.2-.41-.18-.64.11-.97.32-1.91.67-2.83.31-.83.91-1.25,1.72-1.42.39-.08.79-.17,1.19-.17,2.03,0,4.04-.28,6.08-.05,1.27.15,2.54-.21,3.72-.65,1.14-.41,2.24-.32,3.37-.14.31.05.63.11.94.15.4.06.76,0,1.04-.33.23-.27.53-.32.86-.28,2.33.29,4.67.36,7.01.59,2.67.27,5.36.23,8.04.08,1.9-.11,3.79-.27,5.66-.64,1.04-.21,2.05-.53,3.05-.85.71-.22.81-.38.78-1.16-.02-.41.15-.74.34-1.07,1.55-2.66,2.43-5.52,2.77-8.57.04-.37.04-.72-.12-1.05-.15-.3-.36-.53-.72-.53-.34,0-.53.22-.67.5-.24.48-.4.99-.52,1.5-.63,2.83-2.1,5.24-3.68,7.61-.09.14-.17.29-.28.42-.26.32-.2.92-.67,1.02-.72.16-1.46.28-2.2.28-.42,0-.37-.33-.29-.61.24-.86.56-1.69.88-2.51.49-1.29.91-2.6,1.23-3.93.43-1.77.96-3.51,1.7-5.18.49-1.1.62-2.19.05-3.3-.09-.53.28-.95.31-1.47.07-1.56-.46-2.96-1.13-4.3-.77-1.54-1.8-2.9-3.07-4.07-.38-.35-.76-.7-1.27-.8-.46-.09-.63-.36-.7-.77-.28-.56-.73-.46-1.19-.3-.06.02-.13.03-.2.04-.04,0-.07,0-.11,0-1.37-.1-2.7.2-4.03.42-2.98.5-5.97.96-8.99,1.17-1.77.13-3.55.08-5.32-.14-.61-.08-1.22-.08-1.83-.03-.1,0-.21-.02-.3-.07-.41-.23-.8-.36-1.2.04-.4.4-.53.84-.32,1.37.04.1.07.2.09.3-.24,1.23-1.06,2.09-1.87,2.95-2.37,2.53-4.8,5-6.83,7.82-1.22,1.7-2.35,3.46-3.19,5.39-.49,1.12-1.09,2.2-1.63,3.3-.29.59-.63,1.19,0,1.79.08.08.03.2-.05.28-2.31.41-4.34,1.6-6.56,2.28-.08.02-.16.04-.25.05-.57-.18-.76-.49-.63-1.09.15-.66.4-1.29.66-1.92.7-1.66,1.76-3.15,2.48-4.78.95-2.14,2.37-3.99,3.38-6.08.47-.98,1.04-1.88,1.69-2.75.99-1.3,1.83-2.69,2.5-4.19.28-.62.64-1.19,1.37-1.4.33-.1.55-.39.76-.65,1.52-1.9,3.19-3.67,4.86-5.43,2.03-2.15,4.55-3.55,7.3-4.57.28-.1.57-.17.84-.29.98-.42,1.97-.59,3.01-.21.4.14.84.1,1.26,0,.6-.14,1.22-.2,1.8-.39,1.68-.54,3.4-.61,5.14-.57,1.42.04,2.83-.11,4.23-.26.55-.06,1.02-.37,1.57-.48,2.72-.54,5.36-1.38,8.01-2.19,1.8-.55,3.65-.9,5.55-.87.64,0,1.22.11,1.57.74.11.2.3.36.5.48,2.62,1.51,4.75,3.66,7.11,5.51.57.45,1.03,1.02,1.62,1.42,2.64,1.8,5.07,3.86,7.53,5.89,3.47,2.87,7.06,5.6,10.73,8.21.77.55,1.28,1.4,1.97,2.06,1.74,1.66,3.29,3.58,5.44,4.72,2.13,1.12,4.43,1.77,6.91,1.38.54-.08,1.08-.1,1.56-.44.37-.26.78-.01,1.15.12,2.47.88,4.9,1.87,7.3,2.92,3.02,1.32,6.07,2.59,9.11,3.87.36.15.78.23,1.02.6Z"/>
      <path class="cls-9" d="M27.03,123.38c.16-.23.4-.3.65-.36,1.26-.29,2.55-.37,3.84-.41,3.42-.1,6.85-.1,10.28-.13,16.01-.15,32.03-.08,48.04-.09,6.24,0,12.48-.03,18.72.04,2.88.03,5.75-.02,8.63.08,1.8.06,3.59.04,5.39.16.76.05,1.51.22,2.25.37.52.11.69.37.65.9,0,.13-.02.25.03.37.2.52.25,1.07.27,1.62.06,1.8.14,3.59-.13,5.38-.07.44-.16.87-.32,1.29-.07.18-.12.36-.18.54-.1.3,0,.59.07.87.08.35.44.26.69.32.64.15.78.32.78.99,0,.1,0,.21.04.31.25.86.3,1.75.3,2.64,0,1.44.06,2.88-.19,4.3-.07.4-.15.79-.29,1.17-.15.4-.29.79-.16,1.23.03.11,0,.25-.02.37-.11.52-.1.56.44.58.72.04,1.44.03,2.16.04,1.44.02,2.87.06,4.29.39.23.05.45.1.65.24.16.12.31.29.25.48-.1.36.06.66.12.99.06.37.13.75.14,1.13.07,1.84.15,3.68-.15,5.51-.09.53-.28,1.02-.43,1.52-.17.57-.05.75.54.76,1.27.02,2.54,0,3.81.07.68.04,1.35.11,2,.31.15.15.37.04.54.12.35.15.58.31.58.78-.01.69.28,1.35.3,2.05.04,1.88.15,3.75-.21,5.62-.15.78-.5,1.49-.44,2.34.04.63-.7,1.1-1.47,1.1-2.81,0-5.63,0-8.44,0-.21,0-.42,0-.63,0-.65,0-.64,0-.57.64.22,2,.16,4.01.05,6.01-.02.42-.12.83-.26,1.24-.18.54-.34,1.07-.28,1.66.04.42-.2.81-.59,1.05H33.38c-.28-.45-.53-.91-.36-1.48.07-.23-.06-.46-.15-.67-.39-1-.5-2.06-.53-3.11-.03-1.33-.07-2.66.06-3.99.04-.38.08-.76.2-1.12.05-.14.07-.28.06-.43-.04-.56.11-.79.64-.9.72-.15,1.45-.3,2.19-.36.97-.08,1.94-.07,2.91-.09,1.92-.05,3.84-.14,5.77-.1.49.01.56-.08.38-.57-.5-1.37-.6-2.8-.6-4.24,0-1.1-.03-2.2.11-3.29.02-.17.06-.33.09-.5q.15-.72-.62-.72c-1.56,0-3.13,0-4.69,0-1.11-.22-1.35-.54-1.34-1.72,0-.17-.05-.34-.1-.49-.78-2.33-.72-4.73-.55-7.14.05-.68.37-1.3.26-1.99-.04-.23.25-.33.29-.58-.23-.17-.51-.14-.77-.13-1.61,0-3.21,0-4.82.05-1.25.05-1.75-.5-1.74-1.76,0-.17-.03-.34-.09-.5-.48-1.31-.61-2.67-.58-4.05.03-1.29-.07-2.58.12-3.86.14-.91.12-.91-.84-.99-.86-.07-1.44-.72-1.36-1.58.03-.27.01-.51-.09-.74-.43-1.01-.56-2.09-.6-3.15-.06-1.81-.2-3.64.3-5.41.09-.33-.13-.68.1-.99Z"/>
      <path class="cls-1" d="M81.01,20.56c-.48-.84-.36-1.46.4-2.03.27-.2.55-.18.83-.05.15.07.3.16.39.31.3.37.64.56,1.16.5.41-.05.69.26.85.64.18.43.35.86.49,1.31.34,1.06.87,2.01,1.55,2.89.17.22.37.42.63.51,1.31.47,2.65.77,4.03.41,1.74-.46,3.46-.96,5.26-1.16.13-.01.25-.08.37-.06,1.01.16,1.48-.35,1.88-1.24.49-1.1,1.32-2.01,2.13-2.9.56-.61,1.09-1.23,1.61-1.87.16-.2.34-.37.59-.46h0c.05-.03.09-.07.14-.11.67-.26.97-.18,1.27.37.19.71.11,1.4-.15,2.09-.53,1.37-.69,2.82-.95,4.25-.06.34.04.55.37.7,1.4.64,2.76,1.37,3.98,2.31.29.23.65.29.98.43.77.32,1.5.69,1.62,1.65.45.73.65,1.5.39,2.35-.11.34-.18.7-.32,1.03-.8,1.78-1.33,3.64-1.79,5.53-.37,1.52-.91,2.99-1.46,4.45-.25.67-.47,1.35-.73,2.08.53.09.99-.07,1.45-.13.36-.05.78.07,1.05-.14.23-.19.27-.6.45-.88.74-1.16,1.49-2.31,2.19-3.49.72-1.21,1.21-2.51,1.57-3.86.21-.77.45-1.54.75-2.28.14-.37.38-.59.79-.61.45-.02.72.2.89.58.14.31.25.63.21.98-.22,1.85-.57,3.67-1.22,5.42-.42,1.13-.88,2.24-1.5,3.28-.27.45-.62.89-.38,1.52.14.38-.19.77-.69.92-.84.27-1.69.54-2.55.75-1.41.34-2.85.55-4.3.69-2.63.25-5.27.28-7.91.22-1.35-.03-2.69-.16-4.03-.33-.52-.07-1.05-.11-1.57-.13-1.33-.04-2.65-.17-3.97-.31-.22-.02-.35,0-.45.21-.21.41-.59.52-1.02.46-.75-.11-1.5-.22-2.25-.32-.56-.07-1.07-.06-1.65.13-1.42.46-2.87.92-4.39.79-.89-.08-1.77-.12-2.66-.07-1.43.07-2.87.04-4.29.24-.84.12-1.49.46-1.8,1.36-.38,1.09-.63,2.18-.69,3.33.23.27.17.6.17.91,0,.49.04.97.2,1.44.29.83.8,1.4,1.68,1.66,1.02.29,2.02.63,3,1.02.56.22,1.16.24,1.74.31,1.58.19,3.11.59,4.64,1.01,1.43.4,2.87.74,4.31,1.08.21.05.44.05.61.18,1.2.92,2.67,1.01,4.05,1.36,1.7.43,3.44.68,5.18.92.62.09,1.17-.13,1.75-.16,1.7-.07,3.38.06,5.05.39,3.34.66,6.62,1.58,9.92,2.42,1.58.4,3.16,1.02,4.77.98,2.45-.06,4.75.7,7.14.96,1.18.13,2.37-.02,3.54.19,2.43.44,4.9.32,7.34.23,2.77-.11,5.51-.53,8.16-1.41.62-.21,1.21-.48,1.8-.9-.6-.35-1.23-.37-1.79-.6-.38-.16-.83-.18-1.02-.65-.07-.17-.32-.18-.5-.24-1.51-.5-2.97-1.11-4.44-1.7-.35-.14-.71-.28-.93-.63-.37-.23-.77-.44-1.12-.71-.4-.3-.68-.71-.62-1.24.05-.47.63-.94,1.17-.97.36-.02.71,0,1.07,0,.57-.19,1.08.06,1.59.22,1.49.47,2.94,1.06,4.4,1.65.59.24,1.16.43,1.83.42.85,0,1.62.44,2.42.72,2.98,1.03,5.9,2.22,8.6,3.87,1.9,1.16,3.65,2.52,5.29,4.03.48.44.86,1,1.19,1.56.21.36.49.61.85.82,4.35,2.58,9.06,4.25,13.92,5.58,1.18.32,2.38.59,3.55.96.34.1.72.13.93.49v1.65c-1.09-.15-2.14-.49-3.19-.77-3.37-.88-6.71-1.86-9.95-3.17-2.2-.89-4.3-1.98-6.27-3.3-.41-.27-.8-.55-1.06-.99-.08-.13-.17-.23-.3-.31-3.11-2.08-6.31-4.01-9.64-5.73-.4-.21-.81-.35-1.27-.33-.42.02-.84-.04-1.26-.11-.21-.03-.42-.04-.56.18-.6.96-1.55,1.55-2.36,2.28-2.1,1.86-4.62,2.84-7.38,3.25-2.35.35-4.71.34-7.08.14-2.38-.2-4.73-.58-7.1-.88-2.43-.31-4.83-.8-7.22-1.32-.12-.03-.26-.04-.36-.1-.62-.35-1.32-.42-2-.52-.24-.04-.43-.16-.6-.33-.16-.16-.33-.25-.56-.19-.4.08-.71-.23-1.08-.27-1.52-.37-2.96-.98-4.48-1.34-.43-.1-.86-.19-1.3-.25-.44-.09-.88-.15-1.31-.23-.82-.08-1.64-.19-2.45-.32-1.44-.24-2.89-.39-4.35-.31-3.31.18-6.53-.33-9.73-1.1-1.46-.35-2.93-.68-4.38-1.04-2.11-.52-4.07-1.43-6.06-2.24-.31-.13-.63-.26-.95-.36-2.21-.73-4.29-1.79-6.52-2.46-.89-.27-1.43-1.02-1.88-1.8-.79-1.37-.8-2.87-.69-4.38.07-.99.25-1.97.62-2.91.18-.49.35-.98.61-1.44.59-1.17,1.71-1.5,2.85-1.77.12-.03.25-.03.38-.05.97-.13,1.96-.06,2.76-.94.52-.58,1.43-.68,2.23-.82,2.32-.41,4.65-.44,7-.32,1.71.09,3.39.3,5.09.46.99.09,1.99,0,2.96.23.74.16,1.46.04,2.18-.12.4.06.75.26,1.1.44.69.35,1.05.21,1.3-.52.17-.52.26-1.06.26-1.61,0-.57-.02-1.13.1-1.7.07-.34-.04-.66-.21-.96-.42-.75-1.02-1.33-1.7-1.83-.72-.56-.72-.56-1.47-.08-.73.46-1.4,1-2.14,1.44-.25.15-.34.35-.34.62,0,.55,0,1.09.09,1.63.06.4.14.86-.39,1.07-.79-.12-1.61-.18-2.17-.88.29-.26.38-.58.36-.96-.02-.57.02-1.14-.02-1.7-.02-.25-.06-.5-.32-.73-.3,1.08-.33,2.22-.88,3.19-.72,0-1.45.01-2.06-.46.47-.91.66-1.9.76-2.91,0-.08,0-.18.03-.25.57-1.24.1-2.21-.79-3.08-.42-.41-.77-.9-1.16-1.33-.37-.37-.81-.67-1.19-1.03-.26-.24-.46-.2-.69.05-.68.73-1.46,1.33-2.4,1.71-.1.04-.21.09-.26.18-.56.96-1.59,1.36-2.43,1.97-.69.51-1.31,1.03-1.73,1.79-.34.61-.76,1.17-1.18,1.71.07.17.29.06.38.19.07.09.06.17-.04.24-1.13.26-2.25.57-3.41.62-.39-.35-.21-.74-.04-1.09.5-1.04,1.16-1.96,1.97-2.79.28-.29.58-.56.76-.93.39-.78.89-1.51.29-2.47-.27-.44-.38-1.03-.48-1.57-.13-.66.12-1.18.78-1.32,1.33-.28,2.54-.79,3.65-1.55.26-.18.6-.2.92-.21.81,0,1.03.3.76,1.07-.05.13-.11.26-.19.35,1.96-1.13,3.61-2.62,4.76-4.61.04-.07.14-.14.13-.21-.02-.94.13-1.93-.37-2.79-.39-.66-1.03-1.1-1.63-1.58-.4-.33-.86-.63-.96-1.21Z"/>
      <path class="cls-1" d="M180,43.78c-3.41-1.43-6.82-2.85-10.2-4.33-2.48-1.09-4.98-2.09-7.53-3-.39-.14-.76-.27-1.08.16-.09.13-.29.17-.46.19-1.18.14-2.36.23-3.54.12-1.04-.09-1.98-.55-2.97-.86-1.87-.58-3.23-1.86-4.58-3.16-.94-.91-1.97-1.73-2.78-2.77-.87-1.12-2.03-1.89-3.16-2.71-2.53-1.83-5.03-3.71-7.44-5.7-2.11-1.75-4.26-3.46-6.39-5.19-.3-.24-.58-.49-.88-.73-.08-.07-.16-.16-.25-.19-.93-.25-1.5-1-2.16-1.6-.8-.72-1.66-1.37-2.48-2.07-.93-.8-1.88-1.57-2.81-2.36-.81-.69-1.72-1.22-2.61-1.79-.4-.25-.77-.54-.98-.96-.09-.18-.22-.22-.39-.26-.71-.19-1.43-.14-2.14-.07-2.15.21-4.23.78-6.27,1.47-2.06.7-4.18,1.17-6.3,1.65-.1.02-.23,0-.31.06-.66.51-1.45.37-2.19.45-1.81.21-3.63.14-5.45.13-.37,0-.71.11-1.06.19-1.15.26-2.3.55-3.45.79-.45.09-.92.1-1.38-.05-.85-.28-1.66-.2-2.51.1-1.74.6-3.47,1.28-5.02,2.25-1.37.86-2.66,1.86-3.74,3.1-.63.73-1.29,1.45-1.96,2.16-.88.94-1.72,1.92-2.54,2.91-.28.34-.58.69-1.07.73-.21.02-.32.19-.44.33-.38.44-.57.97-.82,1.49-.67,1.37-1.48,2.66-2.41,3.86-.52.67-.99,1.37-1.34,2.14-.62,1.37-1.5,2.6-2.28,3.87-.26.41-.47.82-.6,1.31-.17.65-.59,1.21-.95,1.78-1,1.57-1.81,3.24-2.51,4.97-.16.39-.28.8-.38,1.21-.11.43.04.67.48.88-.34.7-1.14,1.12-1.89,1-.53-.56-.54-1.26-.47-1.95.11-1.06.48-2.05.91-3.02,1.12-2.54,2.53-4.93,4-7.27.3-.48.61-.97.92-1.44.21-.32.43-.63.35-1.05-.03-.17.06-.33.15-.47,1.44-2.29,2.65-4.72,4.29-6.88,2-2.63,4.07-5.19,6.51-7.44,1.18-1.09,2.43-2.11,3.74-3.03.76-.54,1.58-1.04,2.44-1.45.86-.4,1.72-.81,2.61-1.15,1.28-.5,2.6-.89,3.93-1.23,1.13-.29,2.28-.47,3.45-.43,1.61.06,3.2-.15,4.78-.41,1.08-.17,2.18-.28,3.28-.14.26.03.51-.01.74-.11,2.62-1.04,5.32-1.79,8.04-2.51.88-.23,1.75-.48,2.63-.72.18-.05.38-.05.51-.22.29-.37.69-.38,1.1-.36,1.2.06,2.39.27,3.58.45,1.09.16,2.14.48,3.21.74,2.01.49,3.58,1.68,4.9,3.22.95,1.11,1.85,2.25,2.73,3.42.66.88,1.51,1.57,2.46,2.14.74.44,1.36,1.08,2.03,1.62,1,.81,2.01,1.61,2.99,2.45.26.22.52.12.77.18.8.21,1.57.5,2.16,1.13,1.14,1.2,2.36,2.31,3.57,3.43.71.66,1.46,1.27,2.36,1.69.89.41,1.69.99,2.31,1.76,1.09,1.36,2.5,2.32,3.87,3.35.49.37.99.72,1.49,1.07.1.07.21.17.32.2,1.09.3,2.03.93,3.06,1.37,1.25.53,2.55.87,3.86,1.19,3.19.77,6.26,1.92,9.28,3.18,4,1.67,7.98,3.38,11.96,5.08.14.06.27.13.4.19v1.9Z"/>
      <path class="cls-22" d="M180,78.95c-1.14-.45-2.34-.69-3.52-1.01-3.17-.87-6.32-1.79-9.36-3.07-1.81-.76-3.57-1.63-5.26-2.63-.18-.11-.37-.2-.57-.28-.27-.11-.42-.31-.57-.56-.46-.77-.98-1.49-1.69-2.1-.83-.71-1.65-1.44-2.53-2.09-1.19-.88-2.43-1.67-3.73-2.38-2.37-1.28-4.86-2.24-7.4-3.12-.44-.15-.87-.34-1.31-.46-.42-.12-.83-.28-1.3-.13-.24.08-.48-.09-.72-.19-1.6-.65-3.21-1.27-4.83-1.85-.58-.21-1.18-.29-1.77-.44.28-.47.72-.68,1.25-.77,1.11-.18,2.17-.54,3.18-1.01.58-.27,1.16-.31,1.78-.12,1.01.31,1.97.75,2.94,1.17,2.25.96,4.58,1.73,6.9,2.51,3.28,1.1,6.62,2.01,9.95,2.94,2.78.78,5.58,1.48,8.39,2.15,2.54.61,5.09,1.14,7.68,1.52.83.12,1.65.31,2.5.37v11.55Z"/>
      <path class="cls-26" d="M128.72,180c.35-.47.58-.97.49-1.58-.05-.32.1-.62.21-.92.34-.97.4-1.98.45-2.99.03-.74,0-1.48,0-2.22,0-.85-.08-1.68-.24-2.52-.06-.34,0-.41.34-.44.17-.01.34,0,.51,0,2.9,0,5.8,0,8.69.02.71,0,1.3-.17,1.6-.89.04-.1.1-.22.07-.3-.18-.49.02-.92.18-1.35.31-.84.39-1.73.46-2.61.09-1.24.07-2.49,0-3.74-.04-.78-.3-1.53-.31-2.31,0-.26-.15-.36-.34-.48-.22-.14-.51-.06-.68-.28.26-.04.51,0,.74.09.37.15.52.38.48.79-.02.17,0,.33.04.5.15.49.23.99.24,1.5.03,1.88.16,3.76-.18,5.63-.06.33-.14.66-.26.98-.14.38-.21.76-.17,1.17.08.69-.47,1.33-1.16,1.43-.25.03-.51.03-.76.03-2.87,0-5.75,0-8.62-.01-.02,0-.04,0-.06,0-.65,0-.66,0-.54.61.1.46.13.92.13,1.39.02,1.35.07,2.71-.04,4.06-.06.76-.16,1.51-.44,2.23-.13.33-.24.67-.14,1.05.07.28,0,.54-.15.79-.07.12-.21.22-.15.39h-.38Z"/>
      <path class="cls-15" d="M58.78,45.3c.75-.11,1.38-.45,1.89-1,1.4-.51,2.79-1.06,4.16-1.67.84-.38,1.79-.46,2.7-.65.28-.3.67-.32,1.04-.37.67-.09,1.31-.43,2.01-.26.67-.17,1.37-.21,2.05-.35.5-.11.98-.33,1.52-.29.13-.13.31-.16.47-.13,1.06.17,2.1-.08,3.15-.14,1.19-.07,2.35.22,3.53.28.93.18,1.87.28,2.78.51.24.06.51.06.67.29.66.28,1.38.3,2.07.47.37-.14.66,0,.9.28.66.38,1.37.61,2.12.76,1.13.4,2.26.81,3.31,1.41.08.06.13.14.13.24,0,.08.02.21-.07.21-.68-.02-1.35.28-2.03.04-2.47-.87-4.91-1.82-7.5-2.32-2.06-.4-4.12-.65-6.22-.69-3.28-.06-6.5.28-9.66,1.13-2.91.78-5.69,1.89-8.31,3.4-.37.21-.75.39-1.11.61-2.37,1.5-4.58,3.2-6.52,5.23-5.23,5.46-8.48,11.91-9.57,19.42-.32,2.19-.47,4.38-.34,6.58.24,4.19,1.14,8.24,2.8,12.11,1.54,3.57,3.64,6.78,6.24,9.65,2.54,2.79,5.46,5.11,8.76,6.96,3.86,2.17,8,3.53,12.39,4.11,5,.66,9.91.24,14.73-1.23,4.7-1.43,8.91-3.76,12.62-6.98,3.96-3.44,6.97-7.58,9.07-12.39,1.5-3.44,2.4-7.03,2.76-10.77.14-1.44.06-2.87.09-4.31-.05-2.12-.33-4.2-.78-6.27-.05-.25-.13-.49-.14-.75-.01-.21-.04-.45.3-.43.36.12.75.15,1.05.41.76,3.36,1.07,6.76.89,10.2-.24,4.52-1.3,8.85-3.19,12.97-3.04,6.64-7.68,11.9-13.88,15.76-3.4,2.12-7.06,3.6-10.97,4.49-3.57.81-7.18,1.11-10.83.78-10.55-.97-19.16-5.57-25.72-13.89-2.68-3.4-4.61-7.22-5.9-11.36-1.14-3.67-1.69-7.41-1.62-11.25.04-2.46.34-4.88.87-7.29.94-4.26,2.61-8.21,4.98-11.85,3.17-4.88,7.3-8.74,12.33-11.65Z"/>
      <path class="cls-17" d="M27.03,123.38c.03.53,0,1.04-.17,1.56-.15.48-.14,1.01-.16,1.51-.06,1.67-.09,3.34.21,4.99.06.33.15.66.25.98.15.48.28.96.25,1.48-.04.66.5,1.17,1.26,1.25.25.03.51,0,.76.02.32.03.46.19.34.46-.26.56-.25,1.17-.28,1.74-.08,1.39-.09,2.78.03,4.18.09.94.29,1.83.58,2.72.05.16.06.32.04.5-.09.83.37,1.43,1.22,1.54.27.04.55.03.82,0,1.54-.14,3.09-.04,4.63-.06.31,0,.62.07.92.1,0,.26-.2.25-.3.34-.13.11-.25.24-.23.43.06.77-.26,1.48-.29,2.25-.06,1.31-.08,2.61.01,3.92.07,1.02.25,2.01.61,2.97.08.21.06.42.05.63-.02.77.25,1.16,1,1.4.1.03.21.04.28.13-.95.05-1.6-.58-1.49-1.49.03-.28.03-.55-.07-.81-.48-1.25-.59-2.55-.58-3.86,0-1.12-.05-2.24.06-3.36.03-.32.09-.63.15-.94.06-.27.17-.52.08-.81-.08-.24.14-.42.25-.61-.23-.15-.45-.09-.65-.09-1.56,0-3.13,0-4.69,0-.23,0-.47,0-.7-.02-.82-.09-1.35-.71-1.27-1.52.03-.33,0-.63-.11-.93-.36-.92-.5-1.88-.52-2.86-.03-1.42-.05-2.83.03-4.25.03-.51.21-.99.26-1.5-.3-.15-.6-.1-.89-.08-.81.07-1.76-.81-1.5-1.69.08-.26,0-.51-.09-.74-.38-.91-.51-1.88-.55-2.85-.06-1.48-.09-2.96.04-4.44.02-.27.08-.54.12-.81.05-.35.22-.68.1-1.06-.04-.13.01-.3.21-.34Z"/>
      <path class="cls-22" d="M134.93,61.56c1.4.69,2.86,1.22,4.32,1.77.65.24,1.31.46,1.95.69.08.21-.17.16-.19.28.95.44,2.02.56,3.03,1.02-.62.5-1.28.82-1.97,1.07-1.65.59-3.37.88-5.1,1.16-2.89.48-5.8.35-8.71.35-.75,0-1.5-.16-2.25-.27-.64-.1-1.26-.11-1.89-.09-.98.02-1.93-.16-2.88-.32-1.35-.23-2.68-.49-4.03-.74-.1-.02-.2-.05-.31-.02-.95.28-1.86.04-2.78-.16-3.54-.74-7-1.82-10.53-2.62-1.51-.34-3.03-.66-4.58-.86-1.1-.15-2.19-.05-3.29-.1-.04,0-.09-.01-.13,0-1.09.44-2.14.02-3.21-.11-2.2-.27-4.33-.84-6.47-1.38-.26-.07-.48-.16-.64-.36-.2-.25-.48-.35-.77-.41-1.79-.39-3.56-.87-5.32-1.34-1.52-.41-3.05-.79-4.64-.85-.35-.01-.71-.13-1.04-.26-1-.4-2.02-.75-3.06-1.04-1.04-.29-1.49-1.03-1.79-1.95-.23-.72-.11-1.47-.13-2.2.61.03,1.2-.1,1.82-.04,1.56.14,3.08.49,4.58.89,3.15.84,6.17,2.03,9.22,3.15,1.47.55,2.99.87,4.54,1.07,1.25.17,2.5.35,3.75.55,3.35.53,6.65,1.33,9.98,1.96,1.61.31,3.23.6,4.85.89.25.04.51.02.76.02,3.81,0,7.61-.03,11.42.04,1.52.02,3.04.03,4.56.13,1.2.09,2.41.02,3.61.12,2.22.18,4.43.08,6.65.09.22,0,.47.08.66-.11Z"/>
      <path class="cls-22" d="M103.2,17.36c-.62.74-1.21,1.5-1.87,2.21-.94,1.02-1.83,2.09-2.48,3.33-.06.11-.12.22-.17.34q-.3.72-1.03.72c-1.08,0-2.13.24-3.17.45-1.09.22-2.16.53-3.23.83-.52.15-1.05.16-1.57.1-.77-.09-1.54-.2-2.27-.48-.33-.13-.61-.3-.81-.58-.63-.87-1.21-1.76-1.54-2.8-.15-.46-.33-.91-.5-1.37-.26-.71-.65-.87-1.38-.62-.06.02-.12.04-.19.06-.19-.23-.18-.56-.34-.8.55-.23,1.13-.2,1.69-.11,1.83.27,3.66.31,5.5.2,1.72-.11,3.43-.33,5.14-.56,2.08-.29,4.15-.71,6.24-.96.67-.08,1.33-.22,2,.01Z"/>
      <path class="cls-22" d="M70.57,41.35c-1.01.24-2.03.46-3.05.63-.01-.04-.01-.09-.04-.12-.55-.58-.6-.79-.25-1.55.38-.8.79-1.59,1.19-2.38.71-1.41,1.32-2.88,2.16-4.23.99-1.58,2.06-3.09,3.24-4.52,1.19-1.45,2.47-2.83,3.77-4.19.83-.87,1.63-1.77,2.43-2.66.46-.51.66-1.17.97-1.77.45.65,1.06,1.14,1.69,1.59.53.38.83.95,1.28,1.38.1.09.17.25.12.41-.19.57-.05,1.13.11,1.67.06.22.09.41-.07.59-.53.6-.9,1.32-1.4,1.95-.51.64-1.09,1.18-1.72,1.66-.67.5-1.33,1.04-2.09,1.41-.07.04-.15.06-.31.14.11-.33.41-.45.46-.71.04-.2.14-.39.12-.62-.01-.19-.07-.32-.29-.33-.55-.02-1.08,0-1.57.34-.53.37-1.09.7-1.71.94-.46.18-.93.24-1.4.36-.9.23-1.1.55-.88,1.45.12.51.36.99.43,1.51,0,.06.03.13.08.17.5.47.23.95.02,1.43-.31.72-.73,1.36-1.31,1.91-.78.75-1.35,1.66-1.85,2.62-.16.3-.14.61-.15.92Z"/>
      <path class="cls-22" d="M110.44,29.05c-.43-.93-1.19-1.42-2.16-1.65-.46-.11-.8-.47-1.16-.74-1.07-.8-2.27-1.37-3.48-1.91-.29-.13-.4-.23-.34-.59.27-1.58.46-3.17,1.05-4.67.24-.61.26-1.23.25-1.87.04.07.11.15.11.22,0,.27.07.4.39.44.54.07.96.41,1.35.77,1.8,1.64,3.11,3.6,3.94,5.89.35.96.49,1.96.43,2.99-.02.42-.36.72-.38,1.13Z"/>
      <path class="cls-22" d="M103.33,17.25s-.09.08-.14.12c.05-.04.09-.08.14-.12Z"/>
      <path class="cls-16" d="M34.78,173.91c-.09-1.1.01-2.2.15-3.29.09-.68.25-.68.81-.67,2.09.06,4.19.08,6.28.13,7.4.2,14.8.03,22.21.1,10.79.1,21.58.06,32.36.03,7.17-.02,14.34.05,21.51-.06,2.17-.03,4.35.01,6.53-.16.76-.06,1.52.03,2.28-.05.23-.02.36.09.42.3.04.16.1.33.11.49.17,1.73.26,3.46-.04,5.18-.05.27-.08.55-.21.79-.23.02-.34-.14-.44-.3-.09-.14-.16-.33-.31-.4-.57-.25-.78-.66-.81-1.28-.02-.44-.45-.64-.98-.55-.65.11-1.3.3-1.85.64-.99.6-2.05.61-3.13.52-2.63-.22-5.26-.41-7.9-.51-3.99-.16-7.99-.32-11.98-.2-3.4.1-6.8.1-10.2.34-.17.01-.34.02-.51.01-2.66-.08-5.32.12-7.99.16-1.79.03-3.59.16-5.38.2-1.75.03-3.5-.2-5.25-.31-1.14-.07-2.28-.12-3.42-.14-2.11-.04-4.22-.19-6.34-.17-2.6.02-5.2-.07-7.8-.15-3.36-.1-6.71-.28-10.07-.39-2.37-.07-4.73-.03-7.1-.09-.33,0-.68.05-.97-.2Z"/>
      <path class="cls-5" d="M139.02,159.69c.13.13.12.31.13.48.05.78.09,1.56.12,2.34.04,1.26-.19,2.48-.47,3.7-.17.74-.2.75-.93.75-9.54,0-19.08.04-28.62,0-10.47-.05-20.94-.05-31.41-.02-6.45.02-12.9,0-19.35.03-3.57.01-7.15,0-10.72,0-.72,0-.79-.04-.95-.73-.38-1.63-.61-3.28-.41-4.96.06-.48-.09-.97.16-1.43.2.17.19.41.2.64.02.4,0,.8-.06,1.2-.12.91-.12.91.74.7.66-.16,1.35-.15,2.02-.18,1.79-.08,3.59-.13,5.39.03.36.03.72.04,1.08.04,3.89.01,7.78.22,11.66.3,3.26.07,6.5-.02,9.76-.15,1.44-.05,2.87-.1,4.31-.16,2.92-.12,5.84,0,8.75-.16,3.47-.19,6.93.06,10.4.08,2.8.02,5.61.25,8.42.43,1.3.08,2.62.15,3.93.18,3.66.08,7.31.22,10.97.27,2.47.04,4.94.29,7.38.69.89.14,1.76.15,2.65.04,1.38-.16,2.77-.38,4.17-.17.4.06.6-.11.6-.52,0-.59-.01-1.18-.07-1.77-.05-.55-.21-1.14.16-1.65Z"/>
      <path class="cls-5" d="M124.52,140.69c.03.96-.22,1.88-.46,2.8-.08.3-.28.46-.61.44-.15,0-.3,0-.44,0-9.37,0-18.74.07-28.11-.02-7.42-.07-14.84-.02-22.27-.06-3.17-.02-6.35-.05-9.52,0-9.9.17-19.79.03-29.69.08-1.09,0-1.1,0-1.31-1.09-.08-.39-.21-.77-.2-1.18,0-.39.24-.82-.16-1.15,0-.08,0-.15-.01-.23.08-.13.08-.3.13-.44.22-.54.66-.64,1.19-.63,2.6.04,5.19.21,7.77.49,2.95.32,5.9.33,8.86.4,2.11.05,4.22.26,6.33.22,1.99-.03,3.96-.25,5.95-.34,1.2-.05,2.41-.14,3.61-.15,2.26-.03,4.51-.22,6.77-.36,1.83-.11,3.67-.22,5.5-.31,2.64-.13,5.28-.1,7.91-.34.21-.02.42-.01.63-.02,1.42-.03,2.83-.02,4.25-.09,1.47-.07,2.95.09,4.43.16.29.01.59.07.88.06,3.78-.12,7.51.37,11.25.82,2.67.32,5.34.51,8.03.59,1.43.04,2.87.15,4.3.3,1.46.15,2.92-.03,4.37.14.21.02.39-.17.61-.09Z"/>
      <path class="cls-16" d="M29.07,129.23c-.1-1.25.01-2.49.13-3.73.02-.17.07-.33.12-.49.06-.21.2-.29.43-.28,2.37.11,4.74.09,7.1.15,7.06.18,14.13,0,21.19.09,11.13.14,22.25.09,33.38.04,7.51-.03,15.02.03,22.53-.07,2.87-.04,5.75-.05,8.62-.19.42-.02.43-.02.56.56.08,1.18.21,2.35.19,3.53,0,.38-.15.49-.49.45-2-.23-4.02-.02-6.02-.12-5.3-.25-10.61-.31-15.91-.23-3.82.06-7.65.22-11.47.23-2.16,0-4.3-.28-6.45-.43-2.32-.16-4.65-.13-6.97,0-.17,0-.34.05-.51.04-1.97-.07-3.93.2-5.89.13-1.29-.05-2.57.2-3.86.13-4.27-.23-8.54-.13-12.81-.11-2.09.01-4.18.22-6.26.32-3.14.15-6.27.45-9.42-.01-2.15-.31-4.34-.39-6.49.21-.34.1-.71.14-1.06.17-.31.03-.54-.06-.63-.39Z"/>
      <path class="cls-5" d="M29.07,129.23c.16.25.39.26.66.22.93-.15,1.85-.41,2.79-.53.99-.13,1.99-.12,2.97-.03.84.07,1.68.06,2.52.2.64.11,1.29.16,1.94.23.74.07,1.48.07,2.21-.01.29-.03.59-.07.88-.07,1.35-.04,2.69-.1,4.04-.24.08,0,.17-.01.25,0,1.31.06,2.62-.08,3.92-.17,1.9-.14,3.8-.05,5.7-.08,1.97-.03,3.93-.02,5.9,0,1.29.01,2.57.18,3.86.09,1.69-.12,3.38-.03,5.06-.14,1.27-.08,2.54,0,3.8-.12,2.17-.19,4.35-.07,6.52-.09,1.07,0,2.14.09,3.2.3.1.02.21.04.31.05,2.55.17,5.11.21,7.66.1,1.52-.07,3.04-.03,4.56-.1,3.97-.18,7.94-.15,11.92-.09,1.98.03,3.97.01,5.95.13,1.75.1,3.5.06,5.26.09.74.01,1.48.01,2.27.19,0-.66.06-1.29-.02-1.9-.08-.65-.08-1.3-.07-1.96.15.15.13.35.14.54.05.97.18,1.94.12,2.91-.07,1.1-.2,2.19-.49,3.25-.19.7-.24.74-.96.74-4.42,0-8.84,0-13.26,0-4.78,0-9.56.06-14.34-.01-10.94-.16-21.87-.12-32.81-.05-10.24.07-20.48.01-30.71.06-1.16,0-1.16,0-1.41-1.13-.17-.78-.35-1.57-.34-2.37Z"/>
      <path class="cls-5" d="M131.36,155.86c-.26.1-.54.1-.81.1-9.39,0-18.79.04-28.18-.03-3.13-.02-6.26-.05-9.39-.06-7.43-.02-14.85-.08-22.28.01-9.03.12-18.07,0-27.1.07-.21,0-.42.03-.63-.05-.58.09-1.14-.07-1.72-.05-.21-.03-.42-.14-.64-.03-.07.04-.14.08-.22.07-.26.11-.45-.02-.65-.17-.29-.64-.39-1.33-.49-2.01-.12-.85-.21-1.71-.21-2.57,0-.12-.16-.45.23-.32.27.71.27.68,1,.49,1.09-.28,2.2-.44,3.33-.28.21.03.42.06.63.05,2.14-.08,4.27.09,6.4.16,2.36.07,4.73.18,7.09.31,1.92.11,3.84.19,5.76.29,2.07.1,4.14.2,6.2.35.3.02.59.03.89.03,4.02.05,8.04.03,12.05-.15,3.55-.16,7.11-.13,10.66-.08,3.61.05,7.23.15,10.84.25,3.15.09,6.3.13,9.44.26,3.59.15,7.18.22,10.76.45,1.71.11,3.41.26,5.12.42.81.08,1.6.21,2.26.74.23.64-.15,1.16-.35,1.72Z"/>
      <path class="cls-16" d="M124.52,140.69c-.17.32-.44.42-.78.31-.27-.09-.54-.09-.81-.09-1.54,0-3.08.03-4.62-.14-1.55-.17-3.11-.19-4.67-.28-1.3-.07-2.61-.07-3.91-.23-1.21-.16-2.42-.33-3.63-.47-.96-.11-1.93-.19-2.89-.29-1.19-.12-2.39-.26-3.58-.34-.76-.05-1.52-.06-2.28-.03-1.67.06-3.34-.1-5-.18-1.17-.06-2.31.08-3.47.05-.8-.02-1.61-.05-2.41.02-1.41.12-2.83.03-4.23.22-.1.01-.21.01-.32,0-1.78-.06-3.55.11-5.32.16-1.39.04-2.78.16-4.16.25-1.24.08-2.48.15-3.72.25-1.2.1-2.41.04-3.61.12-1.75.11-3.5.11-5.24.27-2.21.2-4.43.28-6.64.19-1.05-.04-2.11-.05-3.15-.2-.48-.07-.97-.03-1.46-.03-.76,0-1.52,0-2.28,0-1.27.01-2.52-.14-3.78-.23-.69-.05-1.38-.13-2.08-.17-1.22-.07-2.43-.26-3.65-.32-.79-.04-1.59-.19-2.39-.07-.35.05-.73.11-1.07-.01-.67-.24-1.14-.02-1.5.55-.15-1.16,0-2.31.12-3.46.01-.35.14-.52.55-.51,2.18.07,4.35.09,6.53.15,7.4.2,14.8.03,22.2.1,10.8.1,21.61.06,32.41.03,7.1-.02,14.21.05,21.31-.06,2.21-.03,4.44,0,6.65-.16.76-.06,1.52.03,2.28-.05.23-.03.36.09.42.29.02.06.04.12.05.18.16,1.38.33,2.77.14,4.17Z"/>
      <path class="cls-16" d="M139.02,159.69c-.02.63-.04,1.26.07,1.89.11.65.04,1.31.03,1.96,0,.28-.16.34-.41.34-.3,0-.58-.12-.88-.12-.63,0-1.26-.03-1.89.07-.6.1-1.22.08-1.83.15-.31.04-.62.11-.94.14-.56.06-1.09-.09-1.63-.16-1.44-.18-2.88-.35-4.33-.49-2.57-.25-5.15-.17-7.72-.26-1.41-.05-2.83-.02-4.24-.13-1.1-.09-2.2-.04-3.29-.11-1.73-.11-3.45-.17-5.18-.27-1.56-.09-3.12-.15-4.67-.25-2.07-.13-4.14-.01-6.21-.13-1.37-.08-2.75-.14-4.11-.06-2.51.14-5.03,0-7.54.13-1.2.06-2.41.01-3.6.12-1.1.1-2.2.01-3.29.12-1.08.11-2.16.02-3.22.13-1.8.18-3.59.16-5.38.07-2.05-.11-4.1.01-6.14-.11-1.12-.07-2.24-.02-3.35-.13-1.2-.12-2.41-.02-3.61-.11-1.9-.14-3.8-.14-5.7-.09-.84.02-1.68.05-2.51.2-.32.06-.58.25-.94.34-.04-.42-.07-.82,0-1.2.12-.63.1-1.26.07-1.89,0-.17.03-.34.1-.49.07-.17.19-.26.39-.25,2.26.15,4.52.08,6.78.14,7.29.21,14.59,0,21.88.1,10.66.14,21.32.09,31.97.04,7.44-.03,14.89.04,22.33-.07,2.66-.04,5.33-.07,7.99-.15.11,0,.21-.01.32-.02q.53-.05.68.55Z"/>
      <path class="cls-5" d="M34.78,173.91c2.22,0,4.44-.05,6.66.03,1.71.07,3.42.02,5.13.13.97.06,1.94.02,2.91.11,2.72.26,5.44.17,8.16.27,1.9.07,3.8-.01,5.7.12,1.31.09,2.62.01,3.92.13.97.08,1.94.04,2.91.12,1.34.11,2.7.11,4.04.26,1.06.12,2.1.16,3.15,0,.04,0,.08,0,.13,0,1.9.05,3.8-.12,5.7-.16,2.13-.04,4.27-.04,6.39-.14,1.24-.06,2.49,0,3.73-.11,1.58-.15,3.17-.02,4.75-.13,2.77-.19,5.53-.11,8.3-.07,1.5.02,3,.02,4.49.13,1.03.07,2.07.01,3.1.11,1.36.14,2.73.16,4.09.32,1.15.14,2.31.23,3.47.16.17-.01.32-.05.47-.14.8-.48,1.67-.81,2.58-1.02.97-.23,1.52.3,1.33,1.27-.01.06-.03.12-.04.17.08.14.22.14.34.16.39.09.64.32.74.7.05.17.12.31.28.4,0,.1.01.21,0,.31-.14.7-.25.79-.97.79-4.15,0-8.29,0-12.44,0-5.16,0-10.32.07-15.48-.02-8.16-.13-16.33-.02-24.49-.07-.15,0-.29-.02-.44-.03-.69-.08-1.37-.1-2.06,0-1.54.01-3.08.01-4.62.04-10.14.17-20.28.02-30.43.07-.13,0-.25-.01-.38,0-.36.04-.57-.14-.64-.47-.22-1.14-.54-2.26-.46-3.44Z"/>
      <path class="cls-7" d="M131.36,155.86c.12-.54.35-1.05.39-1.61-.23-.47-.07-.96,0-1.43.19-1.28-.06-2.53-.1-3.8-.01-.49-.32-.68-.8-.69-1.08-.02-2.15.09-3.23.12-6.26.18-12.52.14-18.78.14-19.59,0-39.18.02-58.77-.02-3.04,0-6.09-.12-9.13-.23-1.32-.05-1.31,0-1.48,1.3-.05.39.08.82-.25,1.15-.13.43-.06.87-.04,1.3.06,1.24.3,2.44.58,3.65-.33-.19-.28-.56-.35-.85-.33-1.33-.43-2.7-.4-4.07.01-.65.11-1.3.12-1.95,0-.16.08-.33.13-.49.16-.44.23-.51.69-.5.78.02,1.56-.09,2.34.1.08.02.17.01.25.01,2.26-.04,4.52.14,6.78.14,16.94-.01,33.89,0,50.83,0,8.14,0,16.29.01,24.43-.04,1.43,0,2.87,0,4.3-.12.76-.06,1.52-.09,2.27-.09.62,0,.66.04.82.63.13.45.2.9.19,1.37-.01.8-.01,1.61,0,2.41.03,1.07-.18,2.1-.51,3.1-.06.18-.08.38-.29.46Z"/>
      <path class="cls-11" d="M31.98,136.56c0,.71.05,1.42-.09,2.13-.08.43-.03.88-.03,1.32,0,.11-.03.2-.12.26-.08-1.02,0-2.04.07-3.06.01-.22,0-.47.17-.65Z"/>
      <path class="cls-27" d="M40.39,155.91c.04-.05.07-.11.11-.16.21-.09.42-.09.63,0,.62-.03,1.23.16,1.84.17-.86.08-1.72.11-2.58,0Z"/>
      <path class="cls-11" d="M31.75,140.5q.55.3.29.81c-.05.11-.09.23-.14.34-.17-.37-.16-.76-.16-1.15Z"/>
      <path class="cls-20" d="M71.31,177.71c.68-.19,1.37-.2,2.06,0-.68.1-1.37.07-2.06,0Z"/>
      <path class="cls-5" d="M67.39,49.32c-.11.43-.24.85-.33,1.28-.3,1.5-.47,3.01-.15,4.52.2.96.63,1.83,1.34,2.54.35.35.75.6,1.22.76,1.08.37,2.17.68,3.23,1.1.27.11.53.23.78.39.31.2.68.32,1.05.44,1.8.56,3.5,1.34,5.24,2.05,1.39.57,2.84.94,4.3,1.28,2.09.5,4.18.97,6.29,1.38,1.42.28,2.87.47,4.33.44.97-.02,1.95.03,2.92-.02,1.17-.06,2.31.14,3.46.29.88.12,1.75.25,2.62.38.38.45.42,1.04.63,1.56.42,1.06.63,2.18.87,3.28.05.21.08.42-.08.6-.52-.16-.87,0-1.1.52-.38.87-1.14.96-1.97.88-1.37-.14-2.71-.43-4.07-.61-2.49-.32-4.98-.67-7.42-1.34-.88-.24-1.75-.48-2.6-.8-.36-.1-.51-.41-.69-.7-1.01-1.57-2.18-2.98-4.01-3.63-1.27-.45-2.57-.57-3.91-.33-.67.12-1.32.29-1.94.54-.29.12-.57.12-.86.01-2.14-1.01-4.18-2.21-6.09-3.62-1.26-.93-2.64-1.68-3.83-2.7-1.69-1.44-3.15-3.05-4.13-5.07-.44-.91-.59-1.79-.21-2.74.07-.18.1-.37.13-.55.48-.54,1.17-.71,1.78-1.03.8-.42,1.63-.76,2.49-1.05.23-.08.47-.2.73-.06Z"/>
      <path class="cls-15" d="M67.39,49.32c-1.4.41-2.72,1.02-4.01,1.69-.31.16-.66.27-.93.52-.07.26-.3.34-.5.46-4.57,2.77-8.11,6.53-10.66,11.22-1.04,1.92-1.78,3.97-2.37,6.07-.87,3.11-1.08,6.3-.87,9.49.22,3.29,1.03,6.47,2.37,9.49,1.43,3.23,3.38,6.11,5.88,8.59,4.62,4.57,10.15,7.38,16.64,8.22,5.87.77,11.48-.16,16.75-2.83,5.08-2.58,9.06-6.39,11.91-11.34,2.08-3.61,3.27-7.51,3.69-11.64.23-2.21.14-4.43-.18-6.63-.05-.34-.19-.7-.02-1.05-.1-.9-.33-1.78-.58-2.65-.2-.69-.44-1.36-.66-2.05-.08-.24-.19-.47-.17-.73.41.1.85.07,1.25.24.27.15.32.44.4.69.6,1.87,1.12,3.76,1.28,5.72.67,5.55-.05,10.9-2.32,16.03-1.62,3.67-3.86,6.9-6.77,9.64-4.57,4.31-9.97,7.04-16.19,7.99-6.22.95-12.22.07-17.91-2.69-2.31-1.12-4.44-2.54-6.39-4.21-4.25-3.64-7.18-8.17-9-13.43-1.3-3.77-1.75-7.68-1.46-11.63.5-6.7,2.94-12.63,7.37-17.72,2.67-3.07,5.84-5.5,9.5-7.29.23-.11.45-.23.7-.31,1.01-.46,2.03-.91,3.09-1.24.24-.07.52-.25.71.1-.18.42-.37.84-.55,1.26Z"/>
      <path class="cls-23" d="M67.95,48.06c-.26-.19-.49,0-.71.08-1.04.32-2.04.75-3.03,1.2-1.38-.15-2.75-.41-4.13-.56-1.36-.15-1.63-.45-1.82-1.82,1.07-.68,2.18-1.29,3.32-1.83,1.61-.75,3.25-1.42,4.96-1.92,1.89-.55,3.8-.97,5.75-1.23,2.23-.3,4.47-.32,6.71-.2,2.38.12,4.73.55,7.03,1.2,1.42.4,2.82.88,4.19,1.45.33.14.68.24.95.49-1.3-.22-2.64-.08-3.94-.35-.3-.06-.63-.02-.95-.02-.29,0-.59.05-.83-.19-.06-.06-.2-.07-.3-.06-2.03.05-4.05-.27-6.07-.11-1.42.11-2.86.22-4.22.69-.64.22-1.29.44-1.6,1.13-.11.25-.35.19-.56.19-.8,0-1.6.09-2.38.25-.54.11-1.03.36-1.51.63-.4.23-.62.62-.87.98Z"/>
      <path class="cls-22" d="M99.03,27.03c.38.51.45,1.07.29,1.68-.14.51-.3,1.01-.41,1.52-.06.27-.18.41-.43.47-1.25.3-2.35.9-3.4,1.62-1.61,1.1-3.36,1.93-5.24,2.48-.72.21-1.46.37-2.23.38-.38,0-.67-.13-.86-.42-.43-.63-.95-1.17-1.44-1.75.73-.21,1.26-.71,1.82-1.2,1.19-1.03,2.61-1.74,4.05-2.32,2.43-.98,5-1.55,7.48-2.4.12-.04.25-.05.38-.04Z"/>
      <path class="cls-12" d="M107.14,35.29c.3.29.27.56.2.86-.45,1.94-1.06,3.82-1.76,5.68-.22.57-.4,1.16-.6,1.73-.1.3-.16.61-.15.93.01.26-.11.37-.36.42-2.19.39-4.39.58-6.61.53-.25,0-.42-.04-.31-.36.32-.93.33-1.91.35-2.88,0-.4-.03-.83.13-1.19.17-.36.66-.3.99-.46,1.01-.49,2.02-.95,3.04-1.42.54-.25,1.09-.45,1.62-.72,1.41-.73,2.6-1.72,3.47-3.14Z"/>
      <path class="cls-2" d="M81.34,40.89c-.55,0-1.09-.06-1.63-.14-1.07-.16-2.13-.11-3.2.01-.8.09-1.59.06-2.38-.04-.05-.04-.1-.09-.15-.13-.16-.1-.37.04-.51-.11.62-.83,1.23-1.67,1.75-2.56.12-.21.28-.36.47-.5.82-.57,1.62-1.14,2.44-1.71.3-.21.6-.4.7-.78.04-.13.13-.21.26-.26,1.11-.35,1.92-1.12,2.71-1.92.07-.07.16-.14.25-.22.56.44,1.12.84,1.59,1.36.08.22-.03.41-.11.6-.81,1.92-1.33,3.9-1.35,5.99,0,.75-.52.37-.85.41Z"/>
      <path class="cls-23" d="M106.49,72.86c-.24-.36-.1-.78-.17-1.17-.31-1.81-.83-3.56-1.38-5.3.82.02,1.61.26,2.38.5,1.16.35,2.31.73,3.46,1.09-.19.05-.19.16-.16.34.16.83.39,1.64.51,2.48.22,1.57.47,3.13.44,4.72-.24.28-.55.31-.87.21-1.32-.41-2.54-1.01-3.57-1.96-.28-.26-.43-.61-.65-.91Z"/>
      <path class="cls-2" d="M99.03,27.03c-.08.14-.23.18-.37.22-1.92.56-3.82,1.22-5.75,1.77-1.91.54-3.62,1.5-5.28,2.56-.38.24-.66.6-.98.89-.38.34-.78.65-1.34.52-.4-.5-.93-.85-1.4-1.27-.2-.18-.44-.32-.59-.59.28-.31.56-.62.85-.93.58-.64,1.07-1.36,1.5-2.11.11-.2.21-.27.44-.16.92.46,1.88.35,2.84.18.67-.11,1.31-.3,1.91-.62.41-.22.87-.05,1.3-.03,1.72.09,3.45.23,5.16-.18.39-.09.77-.23,1.12-.41.26-.14.44-.08.59.15Z"/>
      <path class="cls-22" d="M101.78,32.88c1.15-.21,2.31-.42,3.46-.63.72-.13.86.03.62.71-.27.74-.72,1.38-1.24,1.96-.55.61-1.13,1.2-1.83,1.64-.02.01-.04.02-.05.03-.59.72-1.45.97-2.26,1.32-.81.35-1.56.84-2.4,1.13-.59.2-.6.2-.95-.32-.26-.39-.57-.71-.9-1.03.11-.66.6-1.06,1.06-1.44,1.3-1.08,2.68-2.05,3.99-3.1.15-.12.35-.15.5-.26Z"/>
      <path class="cls-22" d="M81.34,40.89c.21-.01.42-.03.63-.04.06-2.44.57-4.78,1.68-6.97.6.5,1.05,1.14,1.53,1.74.21.26.41.53.66.76.19.18.28.39.2.63-.38,1.25-.37,2.58-.76,3.82-.09.29-.1.65-.53.69-.82-.15-1.64-.27-2.44-.46-.32-.08-.67.03-.97-.17Z"/>
      <path class="cls-2" d="M93.14,44.57c-.92-.44-1.85-.84-2.8-1.21-.19-.07-.4-.14-.51-.34.47-.2.32-.61.26-.93-.11-.61-.09-1.22-.12-1.82-.01-.31.04-.51.4-.58.21-.04.4-.23.58-.37.69-.53,1.42-.97,2.15-1.43.28-.18.44-.15.65.07.13.14.28.25.43.37,0,.78-.22,1.53-.34,2.3-.17,1.1-.37,2.2-.37,3.32,0,.24.08.58-.33.63Z"/>
      <path class="cls-22" d="M93.14,44.57c.17-.11.16-.28.15-.45-.04-1.59.29-3.13.58-4.67.07-.38-.02-.81.31-1.13.77.5,1.37,1.14,1.83,1.95.18.32.27.64.19.95-.16.65-.09,1.3-.11,1.94-.02.59-.13,1.17-.37,1.71-.23.53-.68.78-1.15.5-.43-.25-.93-.37-1.3-.71-.07,0-.12-.03-.13-.1Z"/>
      <path class="cls-3" d="M101.78,32.88c-.77.75-1.66,1.33-2.49,2-.61.48-1.24.93-1.85,1.42-.49.39-.9.85-1.22,1.4-.24-.3-.57-.5-.85-.74-.34-.29-.35-.28-.02-.61.31-.31.63-.63.95-.93.49-.46.95-.96,1.32-1.53.2-.31.47-.45.83-.51.75-.12,1.49-.32,2.25-.25.22.02.41-.1.61-.14.08-.06.18-.04.26-.09.07,0,.14,0,.21,0Z"/>
      <path class="cls-13" d="M87.72,42.27c-.3-.09-.6-.19-.9-.28.13-.83.47-1.62.56-2.46.04-.33.09-.66.14-1.03.45.17.65.48.66.91.03.78.05,1.56.06,2.34,0,.39-.08.45-.52.52Z"/>
      <path class="cls-8" d="M93.42,35.52c-.42.4-.92.66-1.4.96-.64.4-1.3.78-1.9,1.25-.37.29-.39.28-.72-.08-.21-.23-.41-.48-.65-.77.78-.27,1.58-.32,2.31-.6.74-.29,1.48-.6,2.22-.89.14-.04.17.02.15.15Z"/>
      <path class="cls-10" d="M93.42,35.52c-.05-.05-.1-.1-.15-.15.14-.11.28-.23.49-.19-.05.19-.18.27-.33.34Z"/>
      <path class="cls-4" d="M73.48,40.47c.17.03.37-.04.51.11-.14.01-.29.04-.43.04-.09,0-.16-.04-.08-.15Z"/>
      <path class="cls-6" d="M102.46,28.46c-.1.12-.21.16-.36.09.09-.18.22-.15.36-.09Z"/>
      <path class="cls-22" d="M101.57,32.88c-.07.08-.16.11-.26.09.06-.1.16-.11.26-.09Z"/>
      <path class="cls-25" d="M106.49,72.86c.22-.08.23.14.29.23.33.5.76.9,1.26,1.22.75.48,1.52.89,2.36,1.19.39.14.77.19,1.17.02.11,1.27.05,2.54-.05,3.8-.22,2.88-.78,5.69-1.71,8.42-2.28,6.69-6.2,12.21-11.78,16.55-3.01,2.34-6.33,4.12-9.94,5.37-2.38.82-4.83,1.36-7.34,1.67-1.85.23-3.71.31-5.57.22-2.39-.12-4.75-.44-7.08-1.04-7.99-2.08-14.44-6.45-19.42-13.02-3.36-4.43-5.45-9.41-6.41-14.88-.64-3.63-.72-7.27-.15-10.92,1.67-10.67,7.08-18.9,16.14-24.73.23,0,.25.16.27.34.07.84.17.95.95,1.19.47.14.95.19,1.43.22.8.06,1.58.2,2.36.35.23.04.46.05.69.07.14,0,.24.05.25.21-4.21,1.92-7.78,4.67-10.72,8.24-2.98,3.62-5,7.72-6.05,12.29-.6,2.63-.85,5.29-.75,7.99.15,3.83,1,7.5,2.57,10.98,2.55,5.68,6.46,10.17,11.78,13.43,3.4,2.08,7.07,3.42,11,4.04,2.87.46,5.77.5,8.65.08,8.21-1.21,14.88-5.1,19.94-11.67,2.6-3.38,4.33-7.19,5.31-11.35.52-2.22.75-4.46.78-6.73.02-1.27-.09-2.54-.23-3.8Z"/>
      <path class="cls-21" d="M74.89,55.46c.38.06.77.08,1.08.36-.4,0-.77-.08-1.08-.36h0Z"/>
      <path class="cls-21" d="M74.89,55.46s-.08,0-.12,0c-.05-.01-.11-.03-.16-.05.05-.1.13-.07.2-.03.03.02.05.05.08.08,0,0,0,0,0,0Z"/>
      <path class="cls-16" d="M39.21,150.79c.04-.61.08-1.22.13-1.83.01-.17.05-.33.09-.5.07-.26.23-.36.51-.35,2.35.07,4.7.03,7.04.14,3.13.15,6.26.06,9.39.08,4.04.03,8.08-.02,12.12.01,10.6.08,21.19.05,31.79.03,7.47-.02,14.93.05,22.4-.06,2.83-.04,5.66-.06,8.49-.19.45-.02.49.01.6.45.02.08.04.17.05.25.17,1.81.32,3.62-.08,5.43-.08,0-.2.04-.24,0-.59-.56-1.35-.56-2.07-.65-1.23-.15-2.47-.25-3.71-.37-.04,0-.08-.01-.13,0-1.14.05-2.27-.12-3.41-.16-1.43-.06-2.87-.03-4.3-.14-.95-.07-1.9-.02-2.84-.11-1.73-.17-3.47-.01-5.19-.14-1.52-.11-3.04,0-4.56-.12-1.73-.14-3.47,0-5.19-.13-1.8-.14-3.59-.01-5.38-.12-3.51-.21-7.02-.12-10.52-.08-1.54.02-3.08.02-4.62.12-3.23.21-6.47.11-9.7.07-1.56-.02-3.11-.16-4.67-.25-1.58-.09-3.16-.18-4.73-.25-1.83-.09-3.67-.17-5.5-.26-.99-.05-1.99-.01-2.97-.12-1.29-.14-2.58,0-3.86-.13-1.37-.13-2.74-.06-4.11-.11-.34-.01-.67-.1-1-.1-1.27.02-2.53.09-3.71.74-.16-.4,0-.79-.11-1.14Z"/>
      <path class="cls-14" d="M41.13,155.75c-.21,0-.42,0-.63,0,.21-.19.42-.17.63,0Z"/>
      <path class="cls-16" d="M105.1,71.58c.25,1.08.34,2.17.41,3.27.2,2.76-.03,5.5-.66,8.19-1.51,6.43-4.79,11.78-9.9,15.98-3.49,2.86-7.44,4.79-11.85,5.77-2.59.58-5.22.83-7.87.68-3.84-.21-7.51-1.11-10.98-2.79-5.1-2.46-9.15-6.11-12.15-10.9-1.74-2.78-2.92-5.8-3.63-9.01-.69-3.17-.84-6.37-.45-9.58.6-5.06,2.44-9.64,5.47-13.74,2.24-3.03,4.98-5.51,8.19-7.48.25-.15.51-.29.77-.43.1.07.12.16.07.27-.67,1.33-.16,2.48.5,3.63,1.23,2.15,2.97,3.81,4.96,5.23.51.37,1.04.72,1.57,1.05,1.1.7,2.1,1.55,3.23,2.21,1.24.72,2.46,1.47,3.76,2.07.39.42-.07.61-.26.81-.93.92-1.69,1.96-2.14,3.19-.55,1.49-.98,3.01-1.24,4.59-.23,1.38-.23,1.43-1.62,1.56-1.22.11-2.44.14-3.67.19-.5.02-.76-.22-.89-.71-.19-.71-.2-1.44-.06-2.14.24-1.23,1.09-1.9,2.25-2.24.88-.26.93-.31.85-1.12-.16-1.66-.16-3.33-.34-4.99-.06-.54-.25-.69-.76-.61-2.3.36-4.14,1.44-5.34,3.47-1.28,2.17-1.77,4.54-1.59,7.06.09,1.29.06,1.36-1.2,1.28-1.73-.11-3.45-.32-5.16-.61-.21-.04-.41-.11-.62-.09-.35.03-.59.23-.68.57-.08.33.07.58.35.75.31.19.67.25,1.03.31,2.01.31,4.03.51,6.05.64.5.03.75.25.91.72.65,1.92,1.69,3.56,3.18,4.97,2.22,2.11,5.99,2.37,8.45.94.66-.38,1.22-.91,1.62-1.58.93-1.55,1.61-3.21,2.07-4.96.19-.71.33-.8,1.06-.84,1.58-.1,3.16-.27,4.73-.44.8-.09,1.01.07.94.88-.03.44-.1.88-.33,1.28-.07.11-.14.21-.21.32-.03.06-.06.11-.1.16-.05.09-.1.17-.15.25-.52.71-1.28,1.02-2.1,1.21-.51.12-.72.41-.65.91.22,1.66.18,3.33.35,4.99.05.46.22.57.65.49,2.74-.48,4.77-1.92,6.07-4.4.99-1.9,1.39-3.93,1.43-6.05.01-.65.11-.81.78-.93,2.19-.4,4.38-.71,6.61-.71.38,0,.77.02,1.12-.17.21-.12.39-.27.39-.54,0-.26-.18-.42-.39-.54-.25-.14-.52-.17-.8-.18-1.74-.07-3.46.07-5.18.33-.73.11-1.46.25-2.19.36-.37.06-.6-.07-.7-.45-.32-1.14-.65-2.28-1.12-3.37-.07-.16-.1-.33.05-.47,1.93.67,3.9,1.17,5.91,1.53,1.59.28,3.2.47,4.79.73,1.14.19,2.28.34,3.42.5.21.03.42.03.63.01.47-.03.86-.18,1.05-.67.06-.15.24-.29.25-.43.03-.53.47-.38.74-.48.24-.08.15.26.31.32Z"/>
      <path class="cls-24" d="M83.91,78.95c.3-.55.37-1.16.39-1.77.01-.32-.16-.43-.43-.38-.97.18-1.96.22-2.95.32-.73.07-1.46.19-2.2.19-.64,0-.64.02-.8.62-.51,1.89-1.25,3.67-2.27,5.34-.05.09-.12.18-.19.25-.86.89-1.84,1.53-3.09,1.83-1.02.24-2.02.27-3.01.16-1.37-.15-2.63-.69-3.69-1.64-.82-.73-1.58-1.53-2.16-2.47-.55-.9-1.01-1.84-1.31-2.86-.14-.47-.15-.46-.66-.5-1.28-.09-2.56-.19-3.83-.35-.94-.12-1.88-.22-2.81-.39-.19-.04-.37-.1-.54-.18-.44-.23-.63-.61-.5-1.03.14-.45.58-.79,1.01-.68.86.22,1.74.3,2.61.42.56.07,1.13.14,1.69.19.69.07,1.39.1,2.07.18.24.03.31-.04.31-.25,0-.38.05-.77-.03-1.14-.14-.63-.03-1.25.03-1.86.11-1.17.33-2.34.79-3.42.41-.95.86-1.87,1.55-2.66,1-1.15,2.21-1.9,3.68-2.3.49-.13.98-.2,1.48-.29.36-.07.48,0,.49.36,0,.38.12.76.11,1.13-.02.87.19,1.72.15,2.59-.04.78.18,1.55.14,2.33-.02.31-.04.48-.42.54-.45.08-.89.23-1.31.45-.95.5-1.41,1.27-1.46,2.34-.02.57.02,1.13.14,1.68.07.31.22.48.56.46,1.34-.08,2.69-.09,4.03-.23.13-.01.25-.01.38-.02.6-.02.63-.03.72-.63.21-1.38.53-2.72.92-4.05.52-1.79,1.35-3.4,2.78-4.66.15-.13.44-.25.24-.56.31.12.58.07.9-.05.56-.21,1.11-.55,1.75-.47.15.02.28-.08.42-.13.12-.04.24-.11.36-.11,1.48.1,2.98.13,4.3.94.42.26.8.59,1.19.9.7.54,1.13,1.29,1.68,1.95.17.2.27.43.38.65.1.2.21.37.46.38,0,.1-.01.22.03.31.59,1.1.88,2.31,1.2,3.51.08.3.17.39.46.33,1.56-.34,3.15-.54,4.74-.7,1.01-.1,2.03-.05,3.04-.02.57.02,1.11.47,1.13.85.02.4-.54.85-1.14.91-.17.02-.34,0-.51,0-1.5-.03-2.98.14-4.46.36-.81.12-1.63.2-2.43.39-.4.1-.53.18-.48.57.11.77-.09,1.5-.17,2.25-.13,1.36-.58,2.62-1.17,3.83-.33.69-.77,1.31-1.21,1.92-.49.67-1.19,1.13-1.87,1.59-1.08.73-2.32,1.04-3.59,1.25-.34.06-.42-.03-.45-.41-.12-1.47-.19-2.94-.26-4.41-.02-.4-.14-.79-.12-1.19.03-.56.01-.56.57-.73.4-.12.81-.21,1.2-.39.47-.22.86-.53,1.15-.96.04-.04.08-.09.12-.13h0c.08-.06.05-.19.13-.25Z"/>
      <path class="cls-18" d="M83.91,78.95c0,.11-.02.2-.13.25,0-.11.03-.2.13-.25Z"/>
      <path class="cls-18" d="M83.78,79.2s-.08.09-.12.13c.04-.04.08-.09.12-.13Z"/>
      <path class="cls-16" d="M81,72.04c1.13.11,1.98.55,2.47,1.57.15.32.35.62.45.97.07.27,0,.4-.28.42-.96.08-1.94.12-2.89.28-.65.11-1.31.03-1.95.18-.24.06-.38.01-.31-.28.11-.49.15-.99.32-1.48.2-.57.55-.99.98-1.37.37-.33.83-.24,1.21-.3Z"/>
      <path class="cls-19" d="M71.81,77.89c-.08.56-.5.77-.92.89-.84.25-1.62.02-2.34-.42-.1-.06-.23-.16-.19-.3.04-.16.2-.12.32-.12.87.04,1.72-.21,2.59-.13.17.01.34-.04.54.08Z"/>
    </g>
  </g>
</svg>